<svg width="192" height="192" version="1.1" xmlns="http://www.w3.org/2000/svg" desc="Created with imagetracer.js version 1.2.6" ><path fill="rgb(5,211,214)" stroke="rgb(5,211,214)" stroke-width="1" opacity="1" d="M 89.5 10 L 103 10.5 L 89.5 11 L 89.5 10 Z " /><path fill="rgb(5,211,214)" stroke="rgb(5,211,214)" stroke-width="1" opacity="1" d="M 81.5 11 L 84 11.5 L 81.5 12 L 81.5 11 Z " /><path fill="rgb(5,211,214)" stroke="rgb(5,211,214)" stroke-width="1" opacity="1" d="M 75.5 12 L 78 12.5 L 75.5 13 L 75.5 12 Z " /><path fill="rgb(5,211,214)" stroke="rgb(5,211,214)" stroke-width="1" opacity="1" d="M 131.5 18 L 136 20.5 L 134.5 20 Q 130.8 19.7 131.5 18 Z " /><path fill="rgb(5,211,214)" stroke="rgb(5,211,214)" stroke-width="1" opacity="1" d="M 123.5 21 L 133.5 22 L 142.5 26 L 142.5 24 L 156 34 L 156 36 Q 158.7 34.9 158 37.5 L 169 50.5 L 169 52.5 Q 166.8 53.7 169.5 55 L 171 54.5 L 173 59.5 L 172 59.5 L 170.5 56 L 168.5 56 L 163.5 57 L 160.5 55 L 158 56 L 157.5 58 L 156.5 56 L 154 57 L 153.5 55 L 152 55.5 L 151.5 54 L 151 56 Q 147.3 54.5 148 57.5 Q 145.5 59 149 60.5 L 147 62.5 L 146.5 64 Q 145.4 53.1 137.5 49 L 128.5 44 L 116.5 43 L 115.5 42 L 115 44 L 111.5 43 L 108 44 L 107 40.5 L 110.5 35 L 114 32.5 L 111 31 L 110.5 34 L 110 30 L 112.5 29 Q 114.2 32.7 116 29.5 L 114 28.5 L 117.5 27 Q 118.8 29.3 120 26.5 L 119 24.5 L 120.5 24 Q 122.2 26.7 124 22.5 L 123.5 21 Z " /><path fill="rgb(5,211,214)" stroke="rgb(5,211,214)" stroke-width="1" opacity="1" d="M 139.5 22 L 140.5 24 L 139.5 22 Z " /><path fill="rgb(5,211,214)" stroke="rgb(5,211,214)" stroke-width="1" opacity="1" d="M 29.5 41 L 28.5 43 L 29.5 41 Z " /><path fill="rgb(5,211,214)" stroke="rgb(5,211,214)" stroke-width="1" opacity="1" d="M 68.5 55 Q 76.8 52.3 74 60.5 L 75 62.5 L 71 73.5 L 70 82.5 L 65 101 L 61.5 102 L 59 98 L 57 97.5 Q 59.5 96 56 94.5 L 55.5 92 L 54 92.5 L 54.5 91 L 53 90.5 L 53.5 89 Q 51.3 89.8 52 87.5 L 44 71.5 L 44 67.5 L 45.5 68 L 51 70 L 57.5 61 L 60 61 Q 58.3 56.9 62.5 58 Q 64 54.5 65.5 57 L 68.5 55 Z " /><path fill="rgb(5,211,214)" stroke="rgb(5,211,214)" stroke-width="1" opacity="1" d="M 115.5 62 L 121 64.5 L 122 66.5 Q 119 67.8 120 72 L 113 76 L 111 70.5 L 112 68.5 L 109 64.5 L 115.5 62 Z " /><path fill="rgb(5,211,214)" stroke="rgb(5,211,214)" stroke-width="1" opacity="1" d="M 23.5 72 L 24 73.5 L 23 75.5 L 24.5 78 Q 22.8 74.9 21 76.5 L 23.5 72 Z " /><path fill="rgb(5,211,214)" stroke="rgb(5,211,214)" stroke-width="1" opacity="1" d="M 19.5 78 Q 23.7 76.7 22 81.5 L 26.5 86 L 28 85.5 L 28 87.5 L 28.5 89 L 30 88.5 L 35 101 Q 37.7 99.9 37 102.5 L 44 116.5 L 43 118.5 L 46 120.5 L 45 123.5 L 47 126.5 L 44.5 127 L 40.5 127 L 36.5 124 L 35.5 125 L 33.5 123 L 31 123.5 L 30.5 125 L 28.5 122 L 24.5 121 L 24 123.5 L 26 128.5 L 24 129.5 L 26 132.5 L 25 135 L 22 135.5 L 35 153.5 L 27 146.5 L 16 127.5 Q 11.6 116.4 10 102.5 L 14 87.5 L 19.5 78 Z " /><path fill="rgb(5,211,214)" stroke="rgb(5,211,214)" stroke-width="1" opacity="1" d="M 94.5 79 Q 98.3 85.3 97 96.5 Q 95 100 93 95.5 L 92.5 94 L 91 94.5 L 93 87.5 L 93 81.5 L 94.5 79 Z " /><path fill="rgb(5,211,214)" stroke="rgb(5,211,214)" stroke-width="1" opacity="1" d="M 89.5 114 L 90 117.5 L 88 118.5 L 89.5 114 Z " /><path fill="rgb(5,211,214)" stroke="rgb(5,211,214)" stroke-width="1" opacity="1" d="M 103.5 115 L 104.5 117 L 103.5 115 Z " /><path fill="rgb(4,151,206)" stroke="rgb(4,151,206)" stroke-width="1" opacity="1" d="M 82.5 10 L 88 10.5 L 82.5 11 L 82.5 10 Z " /><path fill="rgb(4,151,206)" stroke="rgb(4,151,206)" stroke-width="1" opacity="1" d="M 104.5 10 L 110 10.5 L 104.5 11 L 104.5 10 Z " /><path fill="rgb(4,151,206)" stroke="rgb(4,151,206)" stroke-width="1" opacity="1" d="M 77.5 11 L 80 11.5 L 77.5 12 L 77.5 11 Z " /><path fill="rgb(4,151,206)" stroke="rgb(4,151,206)" stroke-width="1" opacity="1" d="M 112.5 11 L 115 11.5 L 112.5 12 L 112.5 11 Z " /><path fill="rgb(4,151,206)" stroke="rgb(4,151,206)" stroke-width="1" opacity="1" d="M 126.5 15 L 130 16.5 L 128.5 17 L 126.5 15 Z " /><path fill="rgb(4,151,206)" stroke="rgb(4,151,206)" stroke-width="1" opacity="1" d="M 53.5 20 L 52.5 22 L 53.5 20 Z " /><path fill="rgb(4,151,206)" stroke="rgb(4,151,206)" stroke-width="1" opacity="1" d="M 137.5 20 L 141 22.5 L 139.5 22 L 137.5 20 Z " /><path fill="rgb(4,151,206)" stroke="rgb(4,151,206)" stroke-width="1" opacity="1" d="M 142.5 23 L 143.5 25 L 142.5 23 Z " /><path fill="rgb(4,151,206)" stroke="rgb(4,151,206)" stroke-width="1" opacity="1" d="M 145.5 25 L 160 37.5 L 153.5 32 Q 147.4 29.3 145.5 25 Z " /><path fill="rgb(4,151,206)" stroke="rgb(4,151,206)" stroke-width="1" opacity="1" d="M 44.5 26 L 42.5 29 L 44.5 26 Z " /><path fill="rgb(4,151,206)" stroke="rgb(4,151,206)" stroke-width="1" opacity="1" d="M 40.5 29 L 29.5 41 L 40.5 29 Z " /><path fill="rgb(4,151,206)" stroke="rgb(4,151,206)" stroke-width="1" opacity="1" d="M 160.5 39 L 164.5 44 L 160.5 39 Z " /><path fill="rgb(4,151,206)" stroke="rgb(4,151,206)" stroke-width="1" opacity="1" d="M 27.5 43 L 26.5 45 L 27.5 43 Z " /><path fill="rgb(4,151,206)" stroke="rgb(4,151,206)" stroke-width="1" opacity="1" d="M 165.5 45 L 166.5 47 L 165.5 45 Z " /><path fill="rgb(4,151,206)" stroke="rgb(4,151,206)" stroke-width="1" opacity="1" d="M 167.5 48 L 168.5 50 L 167.5 48 Z " /><path fill="rgb(4,151,206)" stroke="rgb(4,151,206)" stroke-width="1" opacity="1" d="M 169.5 51 L 172 54.5 L 170 53.5 L 169.5 51 Z " /><path fill="rgb(4,151,206)" stroke="rgb(4,151,206)" stroke-width="1" opacity="1" d="M 78.5 55 L 79 57 L 77 56.5 L 78.5 55 Z " /><path fill="rgb(4,151,206)" stroke="rgb(4,151,206)" stroke-width="1" opacity="1" d="M 113.5 61 Q 120.4 60.1 122 64.5 L 119.5 63 L 113.5 62 L 109.5 63 L 109.5 62 L 113.5 61 Z " /><path fill="rgb(4,151,206)" stroke="rgb(4,151,206)" stroke-width="1" opacity="1" d="M 122.5 66 L 123 70 L 121 69.5 L 122.5 66 Z " /><path fill="rgb(4,151,206)" stroke="rgb(4,151,206)" stroke-width="1" opacity="1" d="M 26.5 69 L 25.5 71 L 26.5 69 Z " /><path fill="rgb(4,151,206)" stroke="rgb(4,151,206)" stroke-width="1" opacity="1" d="M 72.5 70 L 73 72.5 L 72 72.5 L 72.5 70 Z " /><path fill="rgb(4,151,206)" stroke="rgb(4,151,206)" stroke-width="1" opacity="1" d="M 94.5 73 L 96 79.5 L 95 79.5 L 94.5 73 Z " /><path fill="rgb(4,151,206)" stroke="rgb(4,151,206)" stroke-width="1" opacity="1" d="M 71.5 74 L 72 77.5 L 71 77.5 L 71.5 74 Z " /><path fill="rgb(4,151,206)" stroke="rgb(4,151,206)" stroke-width="1" opacity="1" d="M 179.5 74 L 180 76.5 L 179 76.5 L 179.5 74 Z " /><path fill="rgb(4,151,206)" stroke="rgb(4,151,206)" stroke-width="1" opacity="1" d="M 70.5 79 L 71 82.5 L 70 82.5 L 70.5 79 Z " /><path fill="rgb(4,151,206)" stroke="rgb(4,151,206)" stroke-width="1" opacity="1" d="M 180.5 79 L 181 81.5 L 180 81.5 L 180.5 79 Z " /><path fill="rgb(4,151,206)" stroke="rgb(4,151,206)" stroke-width="1" opacity="1" d="M 96.5 81 L 97 84.5 L 96 84.5 L 96.5 81 Z " /><path fill="rgb(4,151,206)" stroke="rgb(4,151,206)" stroke-width="1" opacity="1" d="M 69.5 84 L 70 86.5 L 69 86.5 L 69.5 84 Z " /><path fill="rgb(4,151,206)" stroke="rgb(4,151,206)" stroke-width="1" opacity="1" d="M 97.5 86 L 98 88.5 L 97 88.5 L 97.5 86 Z " /><path fill="rgb(4,151,206)" stroke="rgb(4,151,206)" stroke-width="1" opacity="1" d="M 68.5 88 L 69 90.5 L 68 90.5 L 68.5 88 Z " /><path fill="rgb(4,151,206)" stroke="rgb(4,151,206)" stroke-width="1" opacity="1" d="M 98.5 90 L 99 92.5 L 98 92.5 L 98.5 90 Z " /><path fill="rgb(4,151,206)" stroke="rgb(4,151,206)" stroke-width="1" opacity="1" d="M 67.5 92 L 68 94.5 L 67 94.5 L 67.5 92 Z " /><path fill="rgb(4,151,206)" stroke="rgb(4,151,206)" stroke-width="1" opacity="1" d="M 131.5 92 L 135 92.5 L 131.5 93 L 131.5 92 Z " /><path fill="rgb(4,151,206)" stroke="rgb(4,151,206)" stroke-width="1" opacity="1" d="M 33.5 95 L 34.5 97 L 33.5 95 Z " /><path fill="rgb(4,151,206)" stroke="rgb(4,151,206)" stroke-width="1" opacity="1" d="M 66.5 96 L 67 98.5 L 66 98.5 L 66.5 96 Z " /><path fill="rgb(4,151,206)" stroke="rgb(4,151,206)" stroke-width="1" opacity="1" d="M 123.5 96 Q 134.9 94.1 139 99.5 L 136.5 98 Q 131.8 95.8 123.5 97 L 123.5 96 Z " /><path fill="rgb(4,151,206)" stroke="rgb(4,151,206)" stroke-width="1" opacity="1" d="M 100.5 97 L 101 99.5 L 100 99.5 L 100.5 97 Z " /><path fill="rgb(4,151,206)" stroke="rgb(4,151,206)" stroke-width="1" opacity="1" d="M 174.5 97 L 177 100.5 L 172 112.5 L 151.5 135 Q 134.1 147.1 120 162.5 L 117 168.5 L 121.5 175 L 126 176.5 L 119.5 179 L 107 181 L 108 176.5 L 104.5 171 L 95.5 170 L 91 173.5 L 89 181 L 91 181.5 L 89.5 182 L 72.5 179 L 58.5 174 Q 46.5 168.5 38 159.5 L 42.5 163 L 50.5 168 L 54 168 L 55.5 162 L 56.5 163 L 60.5 159 Q 66.6 160.3 66 157.5 L 63 154.5 L 57 141.5 L 58 141.5 Q 60.4 151.6 67.5 157 Q 74 158 76 154.5 L 75.5 153 L 76.5 154 L 79.5 151 L 82.5 149 L 85.5 150 L 88.5 146 L 90.5 150 L 93.5 150 Q 97.6 145.6 105.5 145 L 109.5 141 Q 110.8 143.3 112 140.5 L 106 118.5 L 107 118.5 L 114 146 L 124.5 142 L 142 130.5 Q 141.3 128.3 143.5 129 Q 156.6 119.4 160 101 Q 162.7 99.9 162 102.5 L 167 104.5 L 167 102 L 169 102 Q 167.9 99.3 170.5 100 L 174.5 97 Z " /><path fill="rgb(4,151,206)" stroke="rgb(4,151,206)" stroke-width="1" opacity="1" d="M 9.5 99 L 10 101.5 L 9 101.5 L 9.5 99 Z " /><path fill="rgb(4,151,206)" stroke="rgb(4,151,206)" stroke-width="1" opacity="1" d="M 139.5 101 Q 142.1 103.4 141 109.5 L 140 112 L 138 111.5 Q 141 109.5 140 103.5 L 139.5 101 Z " /><path fill="rgb(4,151,206)" stroke="rgb(4,151,206)" stroke-width="1" opacity="1" d="M 64.5 103 L 65 106.5 L 63.5 109 L 63 107.5 L 64.5 103 Z " /><path fill="rgb(4,151,206)" stroke="rgb(4,151,206)" stroke-width="1" opacity="1" d="M 102.5 104 L 104 109.5 L 103 109.5 L 102.5 104 Z " /><path fill="rgb(4,151,206)" stroke="rgb(4,151,206)" stroke-width="1" opacity="1" d="M 181.5 104 L 182 107.5 L 181 107.5 L 181.5 104 Z " /><path fill="rgb(4,151,206)" stroke="rgb(4,151,206)" stroke-width="1" opacity="1" d="M 10.5 106 L 11 108.5 L 10 108.5 L 10.5 106 Z " /><path fill="rgb(4,151,206)" stroke="rgb(4,151,206)" stroke-width="1" opacity="1" d="M 40.5 108 L 42 110.5 L 41 110.5 L 40.5 108 Z " /><path fill="rgb(4,151,206)" stroke="rgb(4,151,206)" stroke-width="1" opacity="1" d="M 11.5 111 L 12 113.5 L 11 113.5 L 11.5 111 Z " /><path fill="rgb(4,151,206)" stroke="rgb(4,151,206)" stroke-width="1" opacity="1" d="M 42.5 112 L 45 116.5 L 44 116.5 L 42.5 112 Z " /><path fill="rgb(4,151,206)" stroke="rgb(4,151,206)" stroke-width="1" opacity="1" d="M 105.5 114 L 106 116.5 L 105 116.5 L 105.5 114 Z " /><path fill="rgb(4,151,206)" stroke="rgb(4,151,206)" stroke-width="1" opacity="1" d="M 12.5 115 L 13 117.5 L 12 117.5 L 12.5 115 Z " /><path fill="rgb(4,151,206)" stroke="rgb(4,151,206)" stroke-width="1" opacity="1" d="M 45.5 118 L 55 135.5 L 53 134.5 L 45.5 118 Z " /><path fill="rgb(4,151,206)" stroke="rgb(4,151,206)" stroke-width="1" opacity="1" d="M 13.5 119 L 14 121.5 L 13 121.5 L 13.5 119 Z " /><path fill="rgb(4,151,206)" stroke="rgb(4,151,206)" stroke-width="1" opacity="1" d="M 88.5 120 L 89 121.5 L 87.5 124 L 87 122.5 L 88.5 120 Z " /><path fill="rgb(4,151,206)" stroke="rgb(4,151,206)" stroke-width="1" opacity="1" d="M 16.5 128 L 18 131.5 L 17 131.5 L 16.5 128 Z " /><path fill="rgb(4,151,206)" stroke="rgb(4,151,206)" stroke-width="1" opacity="1" d="M 86.5 128 L 87 134 L 89 134.5 L 87.5 135 Q 84.4 133.4 86.5 128 Z " /><path fill="rgb(4,151,206)" stroke="rgb(4,151,206)" stroke-width="1" opacity="1" d="M 95.5 129 L 96 133.5 Q 94.5 141.1 89.5 145 L 90 143.5 L 95.5 129 Z " /><path fill="rgb(4,151,206)" stroke="rgb(4,151,206)" stroke-width="1" opacity="1" d="M 92.5 131 L 93 133.5 L 90.5 135 L 90.5 134 Q 93.4 134.7 92.5 131 Z " /><path fill="rgb(4,151,206)" stroke="rgb(4,151,206)" stroke-width="1" opacity="1" d="M 20.5 137 L 23 140.5 L 21 139.5 L 20.5 137 Z " /><path fill="rgb(4,151,206)" stroke="rgb(4,151,206)" stroke-width="1" opacity="1" d="M 55.5 137 L 57 139.5 L 55 138.5 L 55.5 137 Z " /><path fill="rgb(4,151,206)" stroke="rgb(4,151,206)" stroke-width="1" opacity="1" d="M 23.5 142 L 24.5 144 L 23.5 142 Z " /><path fill="rgb(4,151,206)" stroke="rgb(4,151,206)" stroke-width="1" opacity="1" d="M 168.5 142 L 167.5 144 L 168.5 142 Z " /><path fill="rgb(4,151,206)" stroke="rgb(4,151,206)" stroke-width="1" opacity="1" d="M 25.5 145 L 32 152.5 L 27 148.5 L 25.5 145 Z " /><path fill="rgb(4,151,206)" stroke="rgb(4,151,206)" stroke-width="1" opacity="1" d="M 166.5 145 L 165.5 147 L 166.5 145 Z " /><path fill="rgb(4,151,206)" stroke="rgb(4,151,206)" stroke-width="1" opacity="1" d="M 163.5 149 L 161.5 152 L 163.5 149 Z " /><path fill="rgb(4,151,206)" stroke="rgb(4,151,206)" stroke-width="1" opacity="1" d="M 67.5 150 L 68.5 152 L 67.5 150 Z " /><path fill="rgb(4,151,206)" stroke="rgb(4,151,206)" stroke-width="1" opacity="1" d="M 32.5 154 L 36.5 159 L 32.5 154 Z " /><path fill="rgb(4,151,206)" stroke="rgb(4,151,206)" stroke-width="1" opacity="1" d="M 151.5 161 L 149.5 164 L 151.5 161 Z " /><path fill="rgb(4,151,206)" stroke="rgb(4,151,206)" stroke-width="1" opacity="1" d="M 146.5 165 L 145.5 167 L 146.5 165 Z " /><path fill="rgb(4,151,206)" stroke="rgb(4,151,206)" stroke-width="1" opacity="1" d="M 101.5 181 L 105 181.5 L 101.5 182 L 101.5 181 Z " /><path fill="rgb(0,24,80)" stroke="rgb(0,24,80)" stroke-width="1" opacity="0.10588235294117647" d="M 95.5 1 L 99.5 2 L 102.5 1 L 109.5 3 L 112.5 2 L 115.5 4 L 117.5 3 L 121 5.5 L 118.5 6 L 104.5 3 L 87.5 3 L 70.5 6 L 47.5 16 Q 33.2 24.7 23 37.5 Q 11.8 51.3 6 70.5 L 3 85.5 L 3 106.5 L 5 117 L 3 116.5 L 3 109.5 L 2 106.5 L 1 98.5 L 2 94.5 L 1 90.5 L 4 77.5 L 3 75.5 L 5 73.5 L 7 63.5 L 14 50.5 Q 11.5 49 15 47.5 L 19 40 Q 21.7 41.1 21 38.5 L 29.5 28 Q 31.8 28.8 31 26.5 L 44.5 16 L 49 15 L 50.5 12 L 53.5 12 L 62.5 7 L 64 7.5 Q 63.4 4.8 69.5 6 L 78 4 Q 76.8 1 80.5 2 L 82.5 3 L 84.5 2 L 86.5 3 L 95.5 1 Z " /><path fill="rgb(0,24,80)" stroke="rgb(0,24,80)" stroke-width="1" opacity="0.10588235294117647" d="M 124.5 5 L 125.5 7 L 127.5 7 L 133.5 10 L 135.5 10 L 141.5 14 L 144 14 L 144.5 16 L 145.5 15 L 149.5 19 L 160 26.5 L 164.5 32 L 168 34.5 L 184 60.5 L 184 64.5 L 186 66.5 L 188 78.5 L 190 82.5 L 189 87.5 L 191 90.5 L 191 101.5 L 189 106.5 L 190 109.5 L 188 110.5 L 189 88.5 L 185 67.5 L 177 49.5 Q 168.2 34.8 155.5 24 Q 141.7 12.3 122 6.5 L 124.5 5 Z " /><path fill="rgb(0,24,80)" stroke="rgb(0,24,80)" stroke-width="1" opacity="0.10588235294117647" d="M 187.5 112 L 188 115.5 L 188 119.5 L 186 121.5 L 184 128.5 Q 186.5 130 183 131.5 L 174 150 Q 171.3 148.9 172 151.5 L 162.5 163 L 149.5 174 L 148 173.5 Q 148.8 175.8 146.5 175 L 139.5 180 L 136.5 180 L 122.5 187 L 119 185.5 Q 146.5 178.5 163 160.5 Q 181.3 142.3 187.5 112 Z " /><path fill="rgb(0,24,80)" stroke="rgb(0,24,80)" stroke-width="1" opacity="0.10588235294117647" d="M 5.5 118 Q 13.2 147.8 33.5 165 Q 48.8 179.2 72 185.5 L 67.5 186 Q 63.3 182 56 182 Q 57.3 179 53.5 180 Q 36 171.5 24 157.5 Q 24.5 153.5 21.5 153 L 19 151.5 L 19 149.5 L 15 145.5 L 16 144.5 L 12 140.5 L 10 133.5 L 5 124.5 L 6 121.5 L 5.5 118 Z " /><path fill="rgb(0,24,80)" stroke="rgb(0,24,80)" stroke-width="1" opacity="0.10588235294117647" d="M 73.5 186 L 83.5 188 L 107.5 188 L 117.5 186 L 117.5 187 L 109.5 190 L 105.5 190 L 103.5 190 Q 95.3 191.7 91.5 189 L 89.5 190 L 84.5 189 L 82 190 L 81.5 188 L 77 189 L 76.5 187 L 74.5 188 L 73.5 186 Z " /><path fill="rgb(11,233,222)" stroke="rgb(11,233,222)" stroke-width="1" opacity="1" d="M 84.5 11 L 108.5 11 L 118.5 13 Q 134.6 17.9 146 27.5 L 144.5 27 L 133.5 22 L 123.5 21 Q 125.2 23 121.5 25 L 119.5 24 L 120 25.5 L 118.5 28 L 116.5 28 L 114 28.5 L 116 29.5 L 114.5 31 Q 113 27.5 111.5 30 Q 108.5 29.1 110 33.5 L 111 33.5 Q 109.9 30.2 112.5 31 Q 116 33 111.5 35 L 109.5 36 L 106.5 35 L 96.5 43 L 95 42.5 L 93.5 45 L 92 44.5 L 90.5 47 Q 81.8 50.3 76 56.5 L 73.5 62 L 74 60.5 Q 76.8 52.3 68.5 55 L 65.5 57 Q 64 54.5 62.5 58 L 60 58 Q 61.7 62.1 57.5 61 L 51 70 L 44.5 67 L 43.5 71 L 37.5 62 L 35.5 61 L 25.5 69 L 27 66.5 L 35 56.5 L 38 50.5 L 38 45.5 Q 36 42 29.5 43 L 28 43.5 L 40.5 30 L 42.5 29 L 42 30.5 L 41 39.5 Q 42.3 43.7 48.5 43 Q 56.1 41.6 60 36.5 Q 63.2 34.2 62 27.5 Q 59.4 22.6 53 21.5 L 64.5 16 L 84.5 11 Z " /><path fill="rgb(11,233,222)" stroke="rgb(11,233,222)" stroke-width="1" opacity="1" d="M 106.5 41 L 108 44 L 112.5 43 L 112.5 44 L 103.5 47 L 103 45.5 L 106.5 41 Z " /><path fill="rgb(11,233,222)" stroke="rgb(11,233,222)" stroke-width="1" opacity="1" d="M 115.5 42 L 118 43.5 L 115 44 L 115.5 42 Z " /><path fill="rgb(11,233,222)" stroke="rgb(11,233,222)" stroke-width="1" opacity="1" d="M 24.5 70 L 23 72.5 L 22 75.5 L 25 78.5 L 29 88.5 L 28 88.5 L 22 81.5 L 22 78 L 18 79.5 Q 12.2 88.7 10.5 102 L 10 97.5 L 16 80.5 L 24.5 70 Z " /><path fill="rgb(11,233,222)" stroke="rgb(11,233,222)" stroke-width="1" opacity="1" d="M 112.5 74 L 114 76.5 L 112 75.5 L 112.5 74 Z " /><path fill="rgb(11,233,222)" stroke="rgb(11,233,222)" stroke-width="1" opacity="1" d="M 88.5 115 L 89 117.5 L 88 117.5 L 88.5 115 Z " /><path fill="rgb(0,0,0)" stroke="rgb(0,0,0)" stroke-width="1" opacity="0" d="M 0 0 L 192 0 L 192 192 L 0 192 L 0 0 Z M 96 1 L 87 3 L 85 2 L 83 3 L 81 2 Q 77 1 78 4 L 70 6 Q 63 5 64 8 L 63 7 L 54 12 L 51 12 L 49 15 L 45 16 L 31 27 Q 32 29 30 28 L 21 39 Q 22 41 19 40 L 15 48 Q 11 49 14 51 L 7 64 L 5 74 L 3 76 L 4 78 L 1 91 L 2 95 L 1 99 L 2 107 L 3 110 L 3 117 L 5 117 L 6 122 L 5 125 L 10 134 L 12 141 L 16 145 L 15 146 L 19 150 L 19 152 L 22 153 Q 24 153 24 158 Q 36 172 54 180 Q 57 179 56 182 Q 63 182 68 186 L 73 186 L 75 188 L 77 187 L 77 189 L 82 188 L 82 190 L 85 189 L 90 190 L 92 189 Q 95 192 104 190 L 106 190 L 110 190 L 119 186 L 123 187 L 137 180 L 140 180 L 147 175 Q 149 176 148 174 L 150 174 L 163 163 L 172 152 Q 171 149 174 150 L 183 132 Q 186 130 184 129 L 186 122 L 188 120 L 187 117 L 188 112 L 190 110 L 189 107 L 191 102 L 191 91 L 189 88 L 190 83 L 188 79 L 186 67 L 184 65 L 184 61 L 168 35 L 165 32 L 160 27 L 150 19 L 146 15 L 145 16 L 144 14 L 142 14 L 136 10 L 134 10 L 128 7 L 126 7 L 125 6 L 124 6 L 118 3 L 116 4 L 113 2 L 110 3 L 103 1 L 100 2 L 96 1 Z " /><path fill="rgb(238,250,254)" stroke="rgb(238,250,254)" stroke-width="1" opacity="1" d="M 51.5 23 L 54 23.5 L 51.5 24 L 51.5 23 Z " /><path fill="rgb(238,250,254)" stroke="rgb(238,250,254)" stroke-width="1" opacity="1" d="M 42.5 39 L 43.5 41 L 42.5 39 Z " /><path fill="rgb(238,250,254)" stroke="rgb(238,250,254)" stroke-width="1" opacity="1" d="M 98 48 L 104 48.5 L 98 50 L 98 48 Z " /><path fill="rgb(238,250,254)" stroke="rgb(238,250,254)" stroke-width="1" opacity="1" d="M 94.5 50 L 97 50.5 L 93 53 L 94.5 50 Z " /><path fill="rgb(238,250,254)" stroke="rgb(238,250,254)" stroke-width="1" opacity="1" d="M 122.5 51 L 126 52 Q 127.3 56.1 124 55 L 123.5 53 L 122.5 55 L 121 52.5 L 122.5 51 Z " /><path fill="rgb(238,250,254)" stroke="rgb(238,250,254)" stroke-width="1" opacity="1" d="M 127 53 Q 132 52.2 134 55.5 L 136 62.5 L 136 66.5 L 134.5 69 L 133 69.5 L 134 72 Q 130.2 73 129 70.5 L 133 63.5 L 133 61.5 Q 133.8 59.3 131.5 60 L 130 60.5 L 130 58.5 L 127 53 Z " /><path fill="rgb(238,250,254)" stroke="rgb(238,250,254)" stroke-width="1" opacity="1" d="M 89.5 54 L 91.5 54 Q 95.9 52.5 95 55.5 L 94 57.5 L 95.5 57 L 97 56.5 L 96.5 55 L 98.5 54 L 98 55.5 Q 97.3 57.8 99.5 57 L 102 56 Q 100.9 53.3 103.5 54 Q 104.9 56.6 109.5 56 L 111.5 55 L 117 56.5 L 111 57 L 110.5 59 L 108 58 L 106.5 62 L 106 60 L 104 60.5 L 104 64.5 Q 105.3 72.3 109.5 77 L 113.5 78 L 117.5 75 L 113 80.5 Q 112.2 83.1 115.5 82 L 117.5 81 L 120 82.5 L 121 78 Q 125.1 79.7 124 75.5 L 125.5 73 L 127.5 74 L 128.5 73 L 131 74.5 Q 130.3 72.3 132.5 73 L 133.5 77 Q 129.1 75.5 130 78.5 L 129.5 80 L 133 79 Q 134.5 82.8 131.5 82 L 131.5 83 L 140.5 85 L 142.5 85 L 150 87 Q 153.8 90.7 152 101.5 L 151 105 L 149 104.5 L 150 99.5 L 146.5 90 L 145.5 92 L 141 89 L 140.5 87 L 139.5 89 L 138.5 85 L 137.5 89 L 129.5 87 L 127 87.5 L 126.5 89 L 124 88 L 124.5 91 L 128.5 90 L 127.5 92 L 121 93 L 120.5 95 L 119.5 93 Q 115.3 94.8 117 102.5 L 119 106.5 L 119 108.5 L 121 114.5 L 120 116.5 L 121 119.5 L 120.5 121 L 125 123 Q 123.9 125.7 126.5 125 L 128 122.5 L 127.5 121 L 129.5 122 L 131 121.5 Q 128.8 122.8 131.5 124 L 146 115 L 147 118.5 L 146 121 L 140 124.5 L 139.5 126 Q 137.7 123.2 136 127.5 L 134.5 130 L 133.5 129 L 130.5 132 L 127 133.5 L 125.5 136 L 121 132.5 Q 119.8 127.7 122 126.5 L 122 124.5 L 121.5 123 L 119.5 124 Q 121.1 122.3 118 120.5 L 112 106.5 Q 111.5 99 108 94.5 L 107 83.5 L 100.5 68 L 98 69 L 95.5 62 L 93 63.5 Q 95.3 64.8 94 69.5 L 91.5 81 L 90.5 78 L 87 91.5 L 85 110.5 L 86.5 110 Q 88.8 109.3 88 111.5 Q 85.1 115.4 86 122 Q 82.3 120.5 83 123.5 L 80 125.5 L 81 127.5 L 79.5 131 L 79 126 L 77 125.5 L 77 123.5 L 71 113.5 L 75 115.5 L 72 107.5 L 72 100.5 L 74 94.5 L 74 89.5 L 77 82.5 L 76.5 80 Q 73.5 79.1 75 83.5 L 73.5 87 L 73 83.5 L 77.5 65 L 78.5 70 L 86.5 56 L 89.5 54 Z M 92 55 L 93 57 Q 94 54 92 55 Z M 90 69 L 89 72 L 92 74 Q 94 68 90 69 Z M 83 70 Q 81 73 84 74 L 84 75 L 83 73 L 80 76 L 79 83 L 79 85 L 76 92 L 77 97 L 75 97 L 76 100 L 74 100 L 75 105 L 74 107 L 78 112 Q 82 113 81 111 L 79 111 L 81 105 L 79 105 L 82 101 L 81 101 L 80 100 L 83 96 L 79 97 Q 78 93 81 94 Q 82 91 79 92 Q 78 89 81 90 L 82 92 L 83 88 L 85 88 L 82 87 L 83 85 L 86 86 L 85 83 L 86 82 L 83 79 L 84 78 L 81 77 L 85 76 L 86 73 L 83 70 Z M 78 73 L 77 76 L 78 76 L 78 73 Z M 80 113 Q 77 114 79 116 Q 78 119 81 118 L 80 117 Q 79 114 82 115 Q 83 112 80 113 Z " /><path fill="rgb(238,250,254)" stroke="rgb(238,250,254)" stroke-width="1" opacity="1" d="M 119.5 55 L 123 56.5 L 121.5 57 L 119.5 55 Z " /><path fill="rgb(238,250,254)" stroke="rgb(238,250,254)" stroke-width="1" opacity="1" d="M 30.5 66 L 29.5 68 L 30.5 66 Z " /><path fill="rgb(238,250,254)" stroke="rgb(238,250,254)" stroke-width="1" opacity="1" d="M 99.5 70 L 101 73.5 L 99 72.5 L 99.5 70 Z " /><path fill="rgb(238,250,254)" stroke="rgb(238,250,254)" stroke-width="1" opacity="1" d="M 35.5 75 Q 38.8 73.9 38 76.5 L 40 80 Q 43.7 78.7 42 84.5 L 44 84.5 L 41 86 L 35.5 75 Z " /><path fill="rgb(238,250,254)" stroke="rgb(238,250,254)" stroke-width="1" opacity="1" d="M 44.5 86 L 46 90.5 L 59 110.5 L 58.5 112 Q 61.1 111.2 60 114.5 L 70 131.5 L 74.5 136 Q 76.8 135.3 76 137.5 L 77 140.5 Q 77.6 145.6 74.5 147 L 71 144.5 L 62 126.5 L 58 121.5 L 42 87.5 L 44.5 86 Z " /><path fill="rgb(238,250,254)" stroke="rgb(238,250,254)" stroke-width="1" opacity="1" d="M 72.5 88 L 73 91.5 L 72 91.5 L 72.5 88 Z " /><path fill="rgb(238,250,254)" stroke="rgb(238,250,254)" stroke-width="1" opacity="1" d="M 89.5 90 L 90 92.5 L 89 92.5 L 89.5 90 Z " /><path fill="rgb(238,250,254)" stroke="rgb(238,250,254)" stroke-width="1" opacity="1" d="M 104.5 90 L 106 93.5 L 105 93.5 L 104.5 90 Z " /><path fill="rgb(238,250,254)" stroke="rgb(238,250,254)" stroke-width="1" opacity="1" d="M 157.5 94 L 158 97.5 L 157 97.5 L 157.5 94 Z " /><path fill="rgb(238,250,254)" stroke="rgb(238,250,254)" stroke-width="1" opacity="1" d="M 70.5 95 L 71 97.5 L 70 97.5 L 70.5 95 Z " /><path fill="rgb(238,250,254)" stroke="rgb(238,250,254)" stroke-width="1" opacity="1" d="M 59.5 105 L 60.5 107 L 59.5 105 Z " /><path fill="rgb(238,250,254)" stroke="rgb(238,250,254)" stroke-width="1" opacity="1" d="M 78.5 106 L 80 106.5 L 77.5 108 L 78.5 106 Z " /><path fill="rgb(238,250,254)" stroke="rgb(238,250,254)" stroke-width="1" opacity="1" d="M 51.5 116 L 52.5 118 L 51.5 116 Z " /><path fill="rgb(238,250,254)" stroke="rgb(238,250,254)" stroke-width="1" opacity="1" d="M 92.5 117 L 91.5 119 L 92.5 117 Z " /><path fill="rgb(238,250,254)" stroke="rgb(238,250,254)" stroke-width="1" opacity="1" d="M 133.5 118 L 132.5 120 L 133.5 118 Z " /><path fill="rgb(238,250,254)" stroke="rgb(238,250,254)" stroke-width="1" opacity="1" d="M 150.5 119 L 149.5 121 L 150.5 119 Z " /><path fill="rgb(238,250,254)" stroke="rgb(238,250,254)" stroke-width="1" opacity="1" d="M 100.5 121 L 101 124.5 L 100 124.5 L 100.5 121 Z " /><path fill="rgb(238,250,254)" stroke="rgb(238,250,254)" stroke-width="1" opacity="1" d="M 70.5 123 L 71.5 125 L 70.5 123 Z " /><path fill="rgb(238,250,254)" stroke="rgb(238,250,254)" stroke-width="1" opacity="1" d="M 146.5 124 L 145.5 126 L 146.5 124 Z " /><path fill="rgb(238,250,254)" stroke="rgb(238,250,254)" stroke-width="1" opacity="1" d="M 94.5 127 L 92.5 130 L 94.5 127 Z " /><path fill="rgb(238,250,254)" stroke="rgb(238,250,254)" stroke-width="1" opacity="1" d="M 84.5 129 L 85 131.5 L 84 131.5 L 84.5 129 Z " /><path fill="rgb(238,250,254)" stroke="rgb(238,250,254)" stroke-width="1" opacity="1" d="M 131.5 133 L 132 135 L 130 134.5 L 131.5 133 Z " /><path fill="rgb(238,250,254)" stroke="rgb(238,250,254)" stroke-width="1" opacity="1" d="M 109.5 137 L 110 139.5 L 109 139.5 L 109.5 137 Z " /><path fill="rgb(247,252,252)" stroke="rgb(247,252,252)" stroke-width="1" opacity="1" d="M 50.5 24 Q 57.8 22.8 60 26.5 L 61 32.5 L 55.5 39 Q 52.2 42.2 44.5 41 Q 41 40 42 34.5 Q 43.5 28 48.5 25 L 50.5 24 Z " /><path fill="rgb(247,252,252)" stroke="rgb(247,252,252)" stroke-width="1" opacity="1" d="M 106.5 36 L 107 38.5 L 99.5 47 L 84 56.5 L 82 61 Q 78.3 62.5 79 59.5 L 81.5 53 Q 96 46.5 106.5 36 Z " /><path fill="rgb(247,252,252)" stroke="rgb(247,252,252)" stroke-width="1" opacity="1" d="M 30.5 44 Q 35.6 43.4 37 46.5 Q 37.7 52.2 35 54.5 L 17 76.5 L 11.5 89 L 11 82.5 L 14 70.5 L 18 64.5 L 18 60.5 Q 21.3 51.8 27.5 46 L 30.5 44 Z M 18 65 L 18 67 L 20 66 L 18 65 Z " /><path fill="rgb(247,252,252)" stroke="rgb(247,252,252)" stroke-width="1" opacity="1" d="M 113.5 45 L 126.5 45 L 135 49 Q 133.9 51.7 136.5 51 L 142 57.5 L 143 67.5 L 140.5 73 Q 136.9 68.1 138 58.5 L 133.5 53 L 127.5 50 L 110.5 49 L 106.5 50 L 106.5 49 L 113.5 45 Z " /><path fill="rgb(247,252,252)" stroke="rgb(247,252,252)" stroke-width="1" opacity="1" d="M 106.5 62 L 109 68.5 L 107 69.5 L 105 64.5 L 106.5 62 Z " /><path fill="rgb(247,252,252)" stroke="rgb(247,252,252)" stroke-width="1" opacity="1" d="M 34.5 63 L 39 65.5 L 52 93.5 L 49 91.5 Q 44.6 78.4 36.5 69 L 34.5 70 Q 33.3 67.8 32 70.5 L 36 81.5 L 41 88.5 Q 54.7 120.1 71 148 L 75.5 149 L 79 143.5 L 79 134 L 77 133.5 L 81 131.5 L 83 128.5 L 82.5 127 Q 85.3 128.3 83 129.5 L 84 137.5 L 82 146.5 L 80 150 L 75.5 150 L 71.5 152 L 67 147.5 Q 51.6 108.4 30 75.5 L 29 69.5 L 34.5 63 Z " /><path fill="rgb(247,252,252)" stroke="rgb(247,252,252)" stroke-width="1" opacity="1" d="M 127.5 65 Q 129.8 64.3 129 66.5 L 125.5 72 Q 123.3 71.3 124 73.5 L 122 77 Q 118.3 78.5 119 75.5 L 127.5 65 Z " /><path fill="rgb(247,252,252)" stroke="rgb(247,252,252)" stroke-width="1" opacity="1" d="M 102.5 76 L 106 86.5 L 104 87 L 102.5 76 Z " /><path fill="rgb(247,252,252)" stroke="rgb(247,252,252)" stroke-width="1" opacity="1" d="M 138 78 Q 150.3 79 156 87.5 L 157 93.5 Q 154.2 95.3 156 101.5 L 157 105.5 L 150.5 119 L 150 116.5 L 152 114.5 L 155 97.5 L 153 89.5 L 148.5 85 Q 141.6 84.4 138 80.5 L 138 78 Z " /><path fill="rgb(247,252,252)" stroke="rgb(247,252,252)" stroke-width="1" opacity="1" d="M 134.5 89 L 139 91.5 L 136.5 92 L 134 91 L 134.5 89 Z " /><path fill="rgb(247,252,252)" stroke="rgb(247,252,252)" stroke-width="1" opacity="1" d="M 52.5 95 L 53.5 97 L 52.5 95 Z " /><path fill="rgb(247,252,252)" stroke="rgb(247,252,252)" stroke-width="1" opacity="1" d="M 88.5 101 L 89 103.5 L 88 103.5 L 88.5 101 Z " /><path fill="rgb(247,252,252)" stroke="rgb(247,252,252)" stroke-width="1" opacity="1" d="M 119.5 101 L 120 103.5 L 119 103.5 L 119.5 101 Z " /><path fill="rgb(247,252,252)" stroke="rgb(247,252,252)" stroke-width="1" opacity="1" d="M 68 103 Q 70.7 101.9 70 104.5 L 68 105.5 L 68 103 Z " /><path fill="rgb(247,252,252)" stroke="rgb(247,252,252)" stroke-width="1" opacity="1" d="M 120.5 105 L 125 113.5 Q 122.5 115 126 116.5 L 124.5 120 L 122 115.5 L 120.5 105 Z " /><path fill="rgb(247,252,252)" stroke="rgb(247,252,252)" stroke-width="1" opacity="1" d="M 144.5 106 L 145.5 108 L 144.5 106 Z " /><path fill="rgb(247,252,252)" stroke="rgb(247,252,252)" stroke-width="1" opacity="1" d="M 60.5 109 L 63 110 L 68 121.5 L 65 119.5 Q 60.7 115.5 60.5 109 Z " /><path fill="rgb(247,252,252)" stroke="rgb(247,252,252)" stroke-width="1" opacity="1" d="M 111.5 109 L 118 124.5 L 119 134.5 L 122 139 L 118.5 140 L 118 137.5 L 118 133.5 L 113 120.5 L 113 115.5 L 111.5 109 Z " /><path fill="rgb(247,252,252)" stroke="rgb(247,252,252)" stroke-width="1" opacity="1" d="M 142.5 110 L 143 112.5 L 138.5 119 L 134 121 Q 132.5 117.3 135.5 118 L 142.5 110 Z " /><path fill="rgb(247,252,252)" stroke="rgb(247,252,252)" stroke-width="1" opacity="1" d="M 94 116 Q 101.1 114.3 103 118.5 L 104 129.5 L 102 137.5 L 103 140 L 99 142.5 L 97.5 145 Q 91.7 147.1 93 142.5 L 96.5 137 L 100 134.5 L 100 132.5 L 101 120.5 Q 99.2 116.2 97.5 119 L 94 121.5 L 93 123.5 L 94 126.5 L 91 128.5 L 90 122.5 L 91 119 L 94 117.5 L 94 116 Z " /><path fill="rgb(247,252,252)" stroke="rgb(247,252,252)" stroke-width="1" opacity="1" d="M 148.5 121 L 141.5 129 L 138.5 131 L 138 128 Q 141.8 129.5 141 126.5 L 148.5 121 Z " /><path fill="rgb(247,252,252)" stroke="rgb(247,252,252)" stroke-width="1" opacity="1" d="M 85.5 122 L 86 125.5 L 85 125.5 L 85.5 122 Z " /><path fill="rgb(247,252,252)" stroke="rgb(247,252,252)" stroke-width="1" opacity="1" d="M 106 136 Q 110.5 134.5 109 139 L 105 138.5 L 106 136 Z " /><path fill="rgb(243,251,253)" stroke="rgb(243,251,253)" stroke-width="1" opacity="1" d="M 102.5 44 L 100.5 47 L 102.5 44 Z " /><path fill="rgb(243,251,253)" stroke="rgb(243,251,253)" stroke-width="1" opacity="1" d="M 110.5 46 L 109.5 48 L 110.5 46 Z " /><path fill="rgb(243,251,253)" stroke="rgb(243,251,253)" stroke-width="1" opacity="1" d="M 96.5 48 L 95.5 50 L 96.5 48 Z " /><path fill="rgb(243,251,253)" stroke="rgb(243,251,253)" stroke-width="1" opacity="1" d="M 106.5 48 L 108 48.5 L 106 49.5 L 109.5 50 L 110.5 49 L 120.5 49 L 121.5 51 Q 118 48.5 110.5 50 Q 109.3 52.3 104.5 51 L 106.5 48 Z " /><path fill="rgb(243,251,253)" stroke="rgb(243,251,253)" stroke-width="1" opacity="1" d="M 93.5 50 L 91.5 53 L 84.5 57 L 86.5 54 L 93.5 50 Z " /><path fill="rgb(243,251,253)" stroke="rgb(243,251,253)" stroke-width="1" opacity="1" d="M 123.5 50 Q 128.3 49.3 130 51.5 L 128.5 52 L 123.5 51 L 123.5 50 Z " /><path fill="rgb(243,251,253)" stroke="rgb(243,251,253)" stroke-width="1" opacity="1" d="M 137.5 51 L 138.5 53 L 137.5 51 Z " /><path fill="rgb(243,251,253)" stroke="rgb(243,251,253)" stroke-width="1" opacity="1" d="M 133.5 53 Q 139.1 54.9 138 63.5 L 137 63.5 Q 136.5 56 133.5 53 Z " /><path fill="rgb(243,251,253)" stroke="rgb(243,251,253)" stroke-width="1" opacity="1" d="M 116.5 54 Q 118.8 53.3 118 55.5 L 116.5 54 Z " /><path fill="rgb(243,251,253)" stroke="rgb(243,251,253)" stroke-width="1" opacity="1" d="M 139.5 54 L 140.5 56 L 139.5 54 Z " /><path fill="rgb(243,251,253)" stroke="rgb(243,251,253)" stroke-width="1" opacity="1" d="M 83.5 58 L 82.5 60 L 83.5 58 Z " /><path fill="rgb(243,251,253)" stroke="rgb(243,251,253)" stroke-width="1" opacity="1" d="M 79.5 61 L 82 61.5 Q 80 66 78 62.5 L 79.5 61 Z " /><path fill="rgb(243,251,253)" stroke="rgb(243,251,253)" stroke-width="1" opacity="1" d="M 105.5 61 L 106 63.5 L 106 65.5 L 107.5 70 Q 108.8 67.8 110 70.5 L 111 74.5 L 110.5 77 L 108 75.5 L 104 64.5 L 105.5 61 Z " /><path fill="rgb(243,251,253)" stroke="rgb(243,251,253)" stroke-width="1" opacity="1" d="M 17.5 62 L 18 65 L 20 65.5 L 18 66.5 L 17.5 65 L 15.5 68 L 16 66.5 L 17.5 62 Z " /><path fill="rgb(243,251,253)" stroke="rgb(243,251,253)" stroke-width="1" opacity="1" d="M 129.5 63 L 130 67.5 L 127 73 Q 124.3 71.9 125 74.5 L 118.5 81 L 115.5 81 L 116 79.5 L 118.5 76 L 122 77 L 124 72 L 128 69.5 L 129 65 L 127 64.5 L 129.5 63 Z " /><path fill="rgb(243,251,253)" stroke="rgb(243,251,253)" stroke-width="1" opacity="1" d="M 138.5 67 L 140 72.5 L 138 75.5 L 139 77.5 L 138 80.5 Q 141.6 84.4 148.5 85 L 153 89.5 L 155 97.5 L 153 98 L 152 90.5 L 150 87 L 136 81.5 L 137 76.5 L 136 74.5 L 138.5 67 Z " /><path fill="rgb(243,251,253)" stroke="rgb(243,251,253)" stroke-width="1" opacity="1" d="M 33.5 69 L 34 70.5 L 32 71.5 L 33.5 69 Z " /><path fill="rgb(243,251,253)" stroke="rgb(243,251,253)" stroke-width="1" opacity="1" d="M 36.5 69 L 51.5 94 L 53 93.5 L 54 95.5 L 53.5 97 Q 55.8 96.3 55 98.5 L 55.5 101 Q 58.1 100.2 57 103.5 L 61.5 109 L 63 109.5 L 61.5 110 L 60 109.5 L 61 111.5 L 59 110.5 L 46 90.5 L 40 76.5 L 36 71.5 L 36.5 69 Z " /><path fill="rgb(243,251,253)" stroke="rgb(243,251,253)" stroke-width="1" opacity="1" d="M 40.5 69 L 41.5 71 L 40.5 69 Z " /><path fill="rgb(243,251,253)" stroke="rgb(243,251,253)" stroke-width="1" opacity="1" d="M 100.5 71 L 104 77.5 L 103 77.5 L 102.5 76 L 101 76.5 L 100 74.5 L 100 72.5 L 100.5 71 Z " /><path fill="rgb(243,251,253)" stroke="rgb(243,251,253)" stroke-width="1" opacity="1" d="M 121.5 72 L 120.5 74 L 121.5 72 Z " /><path fill="rgb(243,251,253)" stroke="rgb(243,251,253)" stroke-width="1" opacity="1" d="M 33.5 73 L 34 75.5 L 33 75.5 L 33.5 73 Z " /><path fill="rgb(243,251,253)" stroke="rgb(243,251,253)" stroke-width="1" opacity="1" d="M 90.5 80 L 92 83.5 L 90.5 91 L 89 90.5 L 90 99.5 L 88 103.5 L 88.5 105 L 87 105.5 L 88 110 L 85.5 111 L 85 107.5 L 86 106.5 L 87 91.5 Q 89.7 88.2 89 81.5 L 90.5 80 Z " /><path fill="rgb(243,251,253)" stroke="rgb(243,251,253)" stroke-width="1" opacity="1" d="M 147.5 80 L 150 81.5 L 148.5 81 L 147.5 80 Z " /><path fill="rgb(243,251,253)" stroke="rgb(243,251,253)" stroke-width="1" opacity="1" d="M 36.5 81 L 37.5 83 L 36.5 81 Z " /><path fill="rgb(243,251,253)" stroke="rgb(243,251,253)" stroke-width="1" opacity="1" d="M 105.5 82 L 107 86.5 L 105.5 90 L 104 87.5 L 106 86.5 L 105.5 82 Z " /><path fill="rgb(243,251,253)" stroke="rgb(243,251,253)" stroke-width="1" opacity="1" d="M 47.5 83 L 49 85.5 L 48 85.5 L 47.5 83 Z " /><path fill="rgb(243,251,253)" stroke="rgb(243,251,253)" stroke-width="1" opacity="1" d="M 38.5 84 L 41 87.5 L 39 86.5 L 38.5 84 Z " /><path fill="rgb(243,251,253)" stroke="rgb(243,251,253)" stroke-width="1" opacity="1" d="M 130 88 L 133.5 89 L 135.5 88 L 140.5 91 L 142.5 90 L 147 96.5 L 147 99.5 L 146 99.5 L 145 95 L 134.5 89 L 134 91 L 130 89.5 L 130 88 Z " /><path fill="rgb(243,251,253)" stroke="rgb(243,251,253)" stroke-width="1" opacity="1" d="M 43.5 93 L 49 103.5 L 47 102.5 L 43.5 93 Z " /><path fill="rgb(243,251,253)" stroke="rgb(243,251,253)" stroke-width="1" opacity="1" d="M 107.5 94 L 113 110.5 L 111.5 114 L 111 111.5 L 112 109.5 L 110 109.5 L 110 105.5 L 107 97.5 L 107.5 94 Z " /><path fill="rgb(243,251,253)" stroke="rgb(243,251,253)" stroke-width="1" opacity="1" d="M 119.5 94 L 118 96.5 Q 117.3 99.1 120 98 L 120 100.5 L 119 103.5 L 120 103.5 L 120.5 102 L 124 110.5 L 122 109.5 L 121.5 108 L 121 111.5 L 124.5 120 L 125.5 118 L 127 122 Q 123.2 122.8 122 119.5 L 120 110.5 L 118 107.5 L 118 105.5 L 117 96.5 L 119.5 94 Z M 121 105 L 120 108 L 121 108 L 121 105 Z " /><path fill="rgb(243,251,253)" stroke="rgb(243,251,253)" stroke-width="1" opacity="1" d="M 156.5 94 L 157 101.5 L 156 101.5 L 156.5 94 Z " /><path fill="rgb(243,251,253)" stroke="rgb(243,251,253)" stroke-width="1" opacity="1" d="M 153.5 100 L 154 104.5 L 152.5 110 L 152 105.5 L 153.5 100 Z " /><path fill="rgb(243,251,253)" stroke="rgb(243,251,253)" stroke-width="1" opacity="1" d="M 69.5 101 L 71 104.5 L 71 106.5 L 75 115.5 L 73 114.5 L 71.5 112 L 70 111.5 L 71 109.5 L 68 108 L 70 103.5 L 69.5 101 Z " /><path fill="rgb(243,251,253)" stroke="rgb(243,251,253)" stroke-width="1" opacity="1" d="M 147.5 102 L 148 105.5 L 142 116.5 L 138.5 120 L 131.5 124 L 132 122.5 L 133.5 120 L 135.5 121 L 140 117.5 L 143 112.5 L 143 108.5 L 147.5 102 Z " /><path fill="rgb(243,251,253)" stroke="rgb(243,251,253)" stroke-width="1" opacity="1" d="M 49.5 105 L 52 109.5 L 51 109.5 L 49.5 105 Z " /><path fill="rgb(243,251,253)" stroke="rgb(243,251,253)" stroke-width="1" opacity="1" d="M 151.5 111 L 152 114.5 Q 149.3 115.3 150 119.5 L 146.5 123 L 141 126.5 Q 141.8 129.1 138.5 128 L 140.5 125 L 142 125 L 142 123 L 144 123 L 144 121 Q 146.7 122.1 146 119.5 L 151.5 111 Z " /><path fill="rgb(243,251,253)" stroke="rgb(243,251,253)" stroke-width="1" opacity="1" d="M 113.5 112 L 114 114.5 L 112.5 117 L 112 115.5 L 113.5 112 Z " /><path fill="rgb(243,251,253)" stroke="rgb(243,251,253)" stroke-width="1" opacity="1" d="M 53.5 114 L 55 116.5 L 54 116.5 L 53.5 114 Z " /><path fill="rgb(243,251,253)" stroke="rgb(243,251,253)" stroke-width="1" opacity="1" d="M 124.5 114 L 125.5 116 L 124.5 114 Z " /><path fill="rgb(243,251,253)" stroke="rgb(243,251,253)" stroke-width="1" opacity="1" d="M 138.5 114 L 136.5 117 L 138.5 114 Z " /><path fill="rgb(243,251,253)" stroke="rgb(243,251,253)" stroke-width="1" opacity="1" d="M 95.5 115 L 100 115.5 L 95.5 116 L 95.5 115 Z " /><path fill="rgb(243,251,253)" stroke="rgb(243,251,253)" stroke-width="1" opacity="1" d="M 93.5 116 L 94 117.5 L 92 118.5 L 93.5 116 Z " /><path fill="rgb(243,251,253)" stroke="rgb(243,251,253)" stroke-width="1" opacity="1" d="M 114.5 116 L 116 118.5 L 115 118.5 L 114.5 116 Z " /><path fill="rgb(243,251,253)" stroke="rgb(243,251,253)" stroke-width="1" opacity="1" d="M 63.5 117 L 64.5 119 L 63.5 117 Z " /><path fill="rgb(243,251,253)" stroke="rgb(243,251,253)" stroke-width="1" opacity="1" d="M 98.5 118 L 100.5 121 L 98.5 118 Z " /><path fill="rgb(243,251,253)" stroke="rgb(243,251,253)" stroke-width="1" opacity="1" d="M 56.5 120 L 57.5 122 L 56.5 120 Z " /><path fill="rgb(243,251,253)" stroke="rgb(243,251,253)" stroke-width="1" opacity="1" d="M 65.5 120 L 68 121.5 L 68.5 120 L 70 123.5 L 69.5 125 L 73 126 Q 72.2 130.2 76 131.5 Q 74.3 134.8 72.5 131 Q 70.3 131.8 71 129.5 L 65.5 120 Z " /><path fill="rgb(243,251,253)" stroke="rgb(243,251,253)" stroke-width="1" opacity="1" d="M 83 122 Q 86 120.8 85 124.5 L 85 126.5 Q 85.8 128.8 83.5 128 L 84 129.5 L 83.5 131 L 82.5 129 L 79.5 133 L 80 131.5 L 83 122 Z " /><path fill="rgb(243,251,253)" stroke="rgb(243,251,253)" stroke-width="1" opacity="1" d="M 104.5 123 L 105 126.5 L 104 126.5 L 104.5 123 Z " /><path fill="rgb(243,251,253)" stroke="rgb(243,251,253)" stroke-width="1" opacity="1" d="M 100.5 125 L 101 129.5 L 99 133.5 Q 101.8 135.3 97.5 137 L 97 135.5 Q 100.4 131.9 100.5 125 Z " /><path fill="rgb(243,251,253)" stroke="rgb(243,251,253)" stroke-width="1" opacity="1" d="M 93.5 127 L 91.5 130 L 93.5 127 Z " /><path fill="rgb(243,251,253)" stroke="rgb(243,251,253)" stroke-width="1" opacity="1" d="M 136 129 Q 138.7 127.9 138 130.5 L 136 131.5 L 136 129 Z " /><path fill="rgb(243,251,253)" stroke="rgb(243,251,253)" stroke-width="1" opacity="1" d="M 119.5 131 L 121.5 136 L 125 138.5 L 118.5 141 L 118.5 140 L 122 139 L 119 134.5 L 119.5 131 Z " /><path fill="rgb(243,251,253)" stroke="rgb(243,251,253)" stroke-width="1" opacity="1" d="M 133.5 132 L 135 132.5 L 132.5 134 L 133.5 132 Z " /><path fill="rgb(243,251,253)" stroke="rgb(243,251,253)" stroke-width="1" opacity="1" d="M 117.5 133 L 118 136.5 L 117 136.5 L 117.5 133 Z " /><path fill="rgb(243,251,253)" stroke="rgb(243,251,253)" stroke-width="1" opacity="1" d="M 128.5 134 L 129.5 136 L 127.5 137 L 128 135.5 L 128.5 134 Z " /><path fill="rgb(243,251,253)" stroke="rgb(243,251,253)" stroke-width="1" opacity="1" d="M 78.5 136 L 79 143.5 L 77 144.5 L 78.5 136 Z " /><path fill="rgb(243,251,253)" stroke="rgb(243,251,253)" stroke-width="1" opacity="1" d="M 103 137 L 106 137.5 L 105.5 139 L 109 139.5 Q 106.9 141.9 101.5 141 L 101.5 140 Q 104.5 140.7 103 137 Z " /><path fill="rgb(243,251,253)" stroke="rgb(243,251,253)" stroke-width="1" opacity="1" d="M 76.5 147 L 75.5 149 L 73 148.5 L 76.5 147 Z " /><path fill="rgb(243,251,253)" stroke="rgb(243,251,253)" stroke-width="1" opacity="1" d="M 68.5 149 L 69.5 151 L 68.5 149 Z " /><path fill="rgb(243,251,253)" stroke="rgb(243,251,253)" stroke-width="1" opacity="1" d="M 75.5 150 L 78 150.5 L 74.5 152 L 75.5 150 Z " /><path fill="rgb(231,246,252)" stroke="rgb(231,246,252)" stroke-width="1" opacity="1" d="M 54.5 23 L 57 23.5 L 54.5 24 L 54.5 23 Z " /><path fill="rgb(231,246,252)" stroke="rgb(231,246,252)" stroke-width="1" opacity="1" d="M 47.5 25 L 46.5 27 L 47.5 25 Z " /><path fill="rgb(231,246,252)" stroke="rgb(231,246,252)" stroke-width="1" opacity="1" d="M 59.5 35 L 56.5 39 L 59.5 35 Z " /><path fill="rgb(231,246,252)" stroke="rgb(231,246,252)" stroke-width="1" opacity="1" d="M 105.5 36 L 103.5 39 L 105.5 36 Z " /><path fill="rgb(231,246,252)" stroke="rgb(231,246,252)" stroke-width="1" opacity="1" d="M 100.5 40 L 99.5 42 L 100.5 40 Z " /><path fill="rgb(231,246,252)" stroke="rgb(231,246,252)" stroke-width="1" opacity="1" d="M 104.5 42 L 103.5 44 L 104.5 42 Z " /><path fill="rgb(231,246,252)" stroke="rgb(231,246,252)" stroke-width="1" opacity="1" d="M 96.5 43 L 95.5 45 L 96.5 43 Z " /><path fill="rgb(231,246,252)" stroke="rgb(231,246,252)" stroke-width="1" opacity="1" d="M 28.5 44 L 30 44.5 L 27.5 46 L 28.5 44 Z " /><path fill="rgb(231,246,252)" stroke="rgb(231,246,252)" stroke-width="1" opacity="1" d="M 114.5 44 L 126 44.5 L 114.5 45 L 114.5 44 Z " /><path fill="rgb(231,246,252)" stroke="rgb(231,246,252)" stroke-width="1" opacity="1" d="M 93.5 45 L 92.5 47 L 93.5 45 Z " /><path fill="rgb(231,246,252)" stroke="rgb(231,246,252)" stroke-width="1" opacity="1" d="M 101.5 46 L 102 48 L 100 47.5 L 101.5 46 Z " /><path fill="rgb(231,246,252)" stroke="rgb(231,246,252)" stroke-width="1" opacity="1" d="M 106.5 46 L 109 46.5 L 106.5 47 L 106.5 46 Z " /><path fill="rgb(231,246,252)" stroke="rgb(231,246,252)" stroke-width="1" opacity="1" d="M 37.5 47 L 38 49.5 L 37 49.5 L 37.5 47 Z " /><path fill="rgb(231,246,252)" stroke="rgb(231,246,252)" stroke-width="1" opacity="1" d="M 90.5 47 L 89.5 49 L 90.5 47 Z " /><path fill="rgb(231,246,252)" stroke="rgb(231,246,252)" stroke-width="1" opacity="1" d="M 133.5 47 L 134.5 49 L 133.5 47 Z " /><path fill="rgb(231,246,252)" stroke="rgb(231,246,252)" stroke-width="1" opacity="1" d="M 34.5 55 L 33.5 57 L 34.5 55 Z " /><path fill="rgb(231,246,252)" stroke="rgb(231,246,252)" stroke-width="1" opacity="1" d="M 117.5 56 L 121 56.5 L 117.5 57 L 117.5 56 Z " /><path fill="rgb(231,246,252)" stroke="rgb(231,246,252)" stroke-width="1" opacity="1" d="M 111 57 L 115 57.5 L 111.5 59 L 111 57 Z " /><path fill="rgb(231,246,252)" stroke="rgb(231,246,252)" stroke-width="1" opacity="1" d="M 123.5 57 L 124.5 59 L 123.5 57 Z " /><path fill="rgb(231,246,252)" stroke="rgb(231,246,252)" stroke-width="1" opacity="1" d="M 108 58 L 110 58.5 L 107 60.5 L 108 58 Z " /><path fill="rgb(231,246,252)" stroke="rgb(231,246,252)" stroke-width="1" opacity="1" d="M 30.5 60 L 28.5 63 L 30.5 60 Z " /><path fill="rgb(231,246,252)" stroke="rgb(231,246,252)" stroke-width="1" opacity="1" d="M 143.5 61 L 144 66.5 L 143 66.5 L 143.5 61 Z " /><path fill="rgb(231,246,252)" stroke="rgb(231,246,252)" stroke-width="1" opacity="1" d="M 34.5 62 Q 38.5 61.5 39 64.5 L 36.5 63 L 33.5 64 L 34.5 62 Z " /><path fill="rgb(231,246,252)" stroke="rgb(231,246,252)" stroke-width="1" opacity="1" d="M 94.5 62 L 97 63.5 L 95.5 63 L 93.5 64 L 94.5 62 Z " /><path fill="rgb(231,246,252)" stroke="rgb(231,246,252)" stroke-width="1" opacity="1" d="M 126.5 62 L 127 64.5 L 126 64.5 L 126.5 62 Z " /><path fill="rgb(231,246,252)" stroke="rgb(231,246,252)" stroke-width="1" opacity="1" d="M 25.5 66 L 25 67.5 L 21.5 72 L 24 68.5 L 25.5 66 Z " /><path fill="rgb(231,246,252)" stroke="rgb(231,246,252)" stroke-width="1" opacity="1" d="M 76.5 67 L 77 69.5 L 76 69.5 L 76.5 67 Z " /><path fill="rgb(231,246,252)" stroke="rgb(231,246,252)" stroke-width="1" opacity="1" d="M 82.5 70 L 86 72.5 L 85 76 L 81 76.5 L 84 77.5 L 83 78.5 L 86 81.5 L 85 82.5 L 86 85.5 L 83 84.5 L 85 87.5 L 83 88 L 81 94 Q 77.7 92.9 79 97 L 82.5 96 L 80 99.5 L 80.5 101 L 82 100.5 L 81 102.5 L 81.5 104 Q 80.3 101.8 79 104.5 L 81 105 L 79 110.5 L 81 110.5 Q 81.9 113.5 77.5 112 L 74 106.5 L 75 104.5 L 74 100 L 76 99.5 L 75 97 L 77 96.5 L 76 91.5 L 79 84.5 L 79 82.5 L 80 75.5 L 83 72.5 L 82.5 70 Z M 79 90 Q 78 93 81 92 Q 82 89 79 90 Z " /><path fill="rgb(231,246,252)" stroke="rgb(231,246,252)" stroke-width="1" opacity="1" d="M 93.5 70 L 94 74.5 L 93 74.5 L 93.5 70 Z " /><path fill="rgb(231,246,252)" stroke="rgb(231,246,252)" stroke-width="1" opacity="1" d="M 121.5 71 L 118.5 75 L 121.5 71 Z " /><path fill="rgb(231,246,252)" stroke="rgb(231,246,252)" stroke-width="1" opacity="1" d="M 43.5 72 L 45 74.5 L 43 73.5 L 43.5 72 Z " /><path fill="rgb(231,246,252)" stroke="rgb(231,246,252)" stroke-width="1" opacity="1" d="M 19.5 74 L 18.5 76 L 19.5 74 Z " /><path fill="rgb(231,246,252)" stroke="rgb(231,246,252)" stroke-width="1" opacity="1" d="M 140.5 74 L 140 75.5 L 139.5 77 L 139 75.5 L 140.5 74 Z " /><path fill="rgb(231,246,252)" stroke="rgb(231,246,252)" stroke-width="1" opacity="1" d="M 111.5 75 L 112 77 L 114 77.5 L 112.5 78 L 111.5 75 Z " /><path fill="rgb(231,246,252)" stroke="rgb(231,246,252)" stroke-width="1" opacity="1" d="M 92.5 78 L 93 80.5 L 92 80.5 L 92.5 78 Z " /><path fill="rgb(231,246,252)" stroke="rgb(231,246,252)" stroke-width="1" opacity="1" d="M 47.5 80 L 49 82.5 L 47 81.5 L 47.5 80 Z " /><path fill="rgb(231,246,252)" stroke="rgb(231,246,252)" stroke-width="1" opacity="1" d="M 149.5 80 L 150.5 82 L 149.5 80 Z " /><path fill="rgb(231,246,252)" stroke="rgb(231,246,252)" stroke-width="1" opacity="1" d="M 153.5 83 L 154.5 85 L 153.5 83 Z " /><path fill="rgb(231,246,252)" stroke="rgb(231,246,252)" stroke-width="1" opacity="1" d="M 49.5 84 L 51 86.5 L 49 85.5 L 49.5 84 Z " /><path fill="rgb(231,246,252)" stroke="rgb(231,246,252)" stroke-width="1" opacity="1" d="M 91.5 86 L 92 88.5 L 91 88.5 L 91.5 86 Z " /><path fill="rgb(231,246,252)" stroke="rgb(231,246,252)" stroke-width="1" opacity="1" d="M 90.5 91 L 91 94.5 L 90 94.5 L 90.5 91 Z " /><path fill="rgb(231,246,252)" stroke="rgb(231,246,252)" stroke-width="1" opacity="1" d="M 128.5 91 L 135 91.5 L 128.5 92 L 128.5 91 Z " /><path fill="rgb(231,246,252)" stroke="rgb(231,246,252)" stroke-width="1" opacity="1" d="M 157.5 91 L 158 93.5 L 157 93.5 L 157.5 91 Z " /><path fill="rgb(231,246,252)" stroke="rgb(231,246,252)" stroke-width="1" opacity="1" d="M 105.5 94 L 106 96.5 L 105 96.5 L 105.5 94 Z " /><path fill="rgb(231,246,252)" stroke="rgb(231,246,252)" stroke-width="1" opacity="1" d="M 144.5 98 L 145 100.5 L 144 100.5 L 144.5 98 Z " /><path fill="rgb(231,246,252)" stroke="rgb(231,246,252)" stroke-width="1" opacity="1" d="M 42.5 99 L 44 101.5 L 43 101.5 L 42.5 99 Z " /><path fill="rgb(231,246,252)" stroke="rgb(231,246,252)" stroke-width="1" opacity="1" d="M 89.5 100 L 90 102.5 L 89 102.5 L 89.5 100 Z " /><path fill="rgb(231,246,252)" stroke="rgb(231,246,252)" stroke-width="1" opacity="1" d="M 59.5 104 L 60.5 106 L 59.5 104 Z " /><path fill="rgb(231,246,252)" stroke="rgb(231,246,252)" stroke-width="1" opacity="1" d="M 45.5 105 L 46.5 107 L 45.5 105 Z " /><path fill="rgb(231,246,252)" stroke="rgb(231,246,252)" stroke-width="1" opacity="1" d="M 88.5 106 L 89 108.5 L 88 108.5 L 88.5 106 Z " /><path fill="rgb(231,246,252)" stroke="rgb(231,246,252)" stroke-width="1" opacity="1" d="M 61.5 107 L 62.5 109 L 61.5 107 Z " /><path fill="rgb(231,246,252)" stroke="rgb(231,246,252)" stroke-width="1" opacity="1" d="M 47.5 109 L 48.5 111 L 47.5 109 Z " /><path fill="rgb(231,246,252)" stroke="rgb(231,246,252)" stroke-width="1" opacity="1" d="M 142.5 109 L 141.5 111 L 142.5 109 Z " /><path fill="rgb(231,246,252)" stroke="rgb(231,246,252)" stroke-width="1" opacity="1" d="M 87.5 112 L 88 115.5 L 86.5 123 L 86 116.5 L 87.5 112 Z " /><path fill="rgb(231,246,252)" stroke="rgb(231,246,252)" stroke-width="1" opacity="1" d="M 79.5 113 Q 83.3 112 82 115 Q 79.3 113.9 80 116.5 L 82 116.5 L 79 118 L 78 114.5 L 79.5 113 Z " /><path fill="rgb(231,246,252)" stroke="rgb(231,246,252)" stroke-width="1" opacity="1" d="M 71.5 114 L 72.5 116 L 71.5 114 Z " /><path fill="rgb(231,246,252)" stroke="rgb(231,246,252)" stroke-width="1" opacity="1" d="M 95.5 114 L 100 114.5 L 94.5 116 L 95.5 114 Z " /><path fill="rgb(231,246,252)" stroke="rgb(231,246,252)" stroke-width="1" opacity="1" d="M 101.5 115 L 105 120.5 L 104 120.5 L 101.5 115 Z " /><path fill="rgb(231,246,252)" stroke="rgb(231,246,252)" stroke-width="1" opacity="1" d="M 135.5 116 L 134.5 118 L 135.5 116 Z " /><path fill="rgb(231,246,252)" stroke="rgb(231,246,252)" stroke-width="1" opacity="1" d="M 51.5 117 L 52.5 119 L 51.5 117 Z " /><path fill="rgb(231,246,252)" stroke="rgb(231,246,252)" stroke-width="1" opacity="1" d="M 67.5 117 L 68.5 119 L 67.5 117 Z " /><path fill="rgb(231,246,252)" stroke="rgb(231,246,252)" stroke-width="1" opacity="1" d="M 74.5 119 L 78 124.5 L 76 125 L 74.5 119 Z " /><path fill="rgb(231,246,252)" stroke="rgb(231,246,252)" stroke-width="1" opacity="1" d="M 97.5 119 L 100 120.5 L 98.5 120 L 97.5 119 Z " /><path fill="rgb(231,246,252)" stroke="rgb(231,246,252)" stroke-width="1" opacity="1" d="M 131.5 119 L 129.5 122 L 127 120.5 L 128.5 121 L 131.5 119 Z " /><path fill="rgb(231,246,252)" stroke="rgb(231,246,252)" stroke-width="1" opacity="1" d="M 149.5 121 L 147.5 124 L 149.5 121 Z " /><path fill="rgb(231,246,252)" stroke="rgb(231,246,252)" stroke-width="1" opacity="1" d="M 77.5 126 Q 80.1 125.2 79 128.5 L 78 128.5 L 77.5 126 Z " /><path fill="rgb(231,246,252)" stroke="rgb(231,246,252)" stroke-width="1" opacity="1" d="M 144.5 126 L 143.5 128 L 144.5 126 Z " /><path fill="rgb(231,246,252)" stroke="rgb(231,246,252)" stroke-width="1" opacity="1" d="M 85.5 128 L 86 130.5 L 85 130.5 L 85.5 128 Z " /><path fill="rgb(231,246,252)" stroke="rgb(231,246,252)" stroke-width="1" opacity="1" d="M 94.5 128 L 95 130 L 92.5 131 L 94.5 128 Z " /><path fill="rgb(231,246,252)" stroke="rgb(231,246,252)" stroke-width="1" opacity="1" d="M 104.5 128 L 105 130.5 L 104 130.5 L 104.5 128 Z " /><path fill="rgb(231,246,252)" stroke="rgb(231,246,252)" stroke-width="1" opacity="1" d="M 84.5 132 L 85 135.5 L 84 135.5 L 84.5 132 Z " /><path fill="rgb(231,246,252)" stroke="rgb(231,246,252)" stroke-width="1" opacity="1" d="M 99.5 143 L 98.5 145 L 99.5 143 Z " /><path fill="rgb(240,252,254)" stroke="rgb(240,252,254)" stroke-width="1" opacity="1" d="M 105.5 47 L 109 47.5 L 104 50.5 L 109.5 51 L 110.5 50 L 119.5 50 L 121.5 51 L 123 50.5 Q 119.5 52 122 53.5 L 122.5 55 L 123.5 53 L 124 55 Q 127.3 56.1 126 52 L 124 51.5 L 127.5 51 L 135 55.5 L 138 64.5 L 138 69.5 L 136 75.5 L 136 77.5 L 135 81.5 L 141 84.5 L 139 85 L 139.5 89 L 140.5 87 L 141 89 L 143.5 90 L 145 89.5 Q 142.8 90.8 145.5 92 L 146.5 90 L 150 99.5 L 150 103.5 L 149.5 105 Q 152.1 105.8 151 102.5 L 152.5 95 L 154 99.5 L 152 105.5 L 152 110.5 L 146.5 118 L 146 115 L 140.5 119 L 142 116.5 L 147 108.5 L 148 102.5 L 146 103.5 L 144.5 106 L 145 104.5 L 146 102.5 L 144 95.5 L 144 93.5 L 142.5 90 L 140.5 91 L 138 90 L 139 84.5 L 131 82.5 L 133 82 Q 134.5 78.3 131.5 79 L 129.5 80 L 130 78.5 Q 129.1 75.5 133.5 77 L 132.5 73 Q 130.3 72.3 131 74.5 L 128.5 73 L 127.5 74 L 126 73.5 L 130 67.5 L 130 63.5 L 128.5 64 Q 125.9 64.8 127 61.5 L 122.5 56 L 119.5 55 L 118 55.5 Q 118.8 53.3 116.5 54 L 116.5 56 L 110.5 55 L 106.5 56 L 102 54 Q 103.1 56.7 100.5 56 L 97.5 58 L 95.5 57 L 94 57.5 L 95 54 L 91 54.5 L 93 55 L 92.5 57 L 90 53 L 92.5 52 L 94.5 53 L 97.5 48 L 98 50 Q 103.4 50.9 105.5 47 Z M 127 53 L 130 59 L 133 60 L 134 63 L 131 69 L 130 72 L 134 72 L 133 70 L 135 69 L 136 67 L 136 63 L 134 56 Q 132 52 127 53 Z M 97 55 L 98 57 Q 99 54 97 55 Z M 146 95 L 146 100 L 147 100 Q 148 96 146 95 Z " /><path fill="rgb(240,252,254)" stroke="rgb(240,252,254)" stroke-width="1" opacity="1" d="M 88.5 54 L 87.5 56 L 85 57.5 L 80 68.5 L 77.5 71 L 78 69.5 L 78.5 63 Q 80.3 65.7 82 61.5 L 86.5 55 L 88.5 54 Z " /><path fill="rgb(240,252,254)" stroke="rgb(240,252,254)" stroke-width="1" opacity="1" d="M 99.5 66 L 104 75.5 L 102 74.5 Q 102.5 70 99 69.5 L 99 67.5 L 99.5 66 Z " /><path fill="rgb(240,252,254)" stroke="rgb(240,252,254)" stroke-width="1" opacity="1" d="M 90 69 L 92 69.5 L 92 71.5 L 91.5 74 Q 87.2 72.3 90 70.5 L 90 69 Z " /><path fill="rgb(240,252,254)" stroke="rgb(240,252,254)" stroke-width="1" opacity="1" d="M 34.5 70 Q 36.8 69.3 36 71.5 L 41 79.5 L 40 79.5 L 38 75 L 35 75.5 L 41 86 L 43 85.5 L 42 83.5 L 43 83.5 L 44 87 L 42 87.5 L 44.5 92 L 46 91.5 L 45 93.5 L 47 97.5 L 46 97.5 L 36 80.5 L 33 71.5 L 34.5 70 Z " /><path fill="rgb(240,252,254)" stroke="rgb(240,252,254)" stroke-width="1" opacity="1" d="M 77.5 73 L 78 75.5 L 77 75.5 L 77.5 73 Z " /><path fill="rgb(240,252,254)" stroke="rgb(240,252,254)" stroke-width="1" opacity="1" d="M 139.5 73 L 140 74.5 L 138 75.5 L 139.5 73 Z " /><path fill="rgb(240,252,254)" stroke="rgb(240,252,254)" stroke-width="1" opacity="1" d="M 43.5 74 L 44.5 76 L 43.5 74 Z " /><path fill="rgb(240,252,254)" stroke="rgb(240,252,254)" stroke-width="1" opacity="1" d="M 119.5 74 L 116 78.5 L 115 80.5 L 115.5 82 Q 112.2 83.1 113 80.5 L 119.5 74 Z " /><path fill="rgb(240,252,254)" stroke="rgb(240,252,254)" stroke-width="1" opacity="1" d="M 123.5 76 L 124 78 L 122 77.5 L 123.5 76 Z " /><path fill="rgb(240,252,254)" stroke="rgb(240,252,254)" stroke-width="1" opacity="1" d="M 120.5 79 L 120 80.5 L 119.5 83 Q 116 81 120.5 79 Z " /><path fill="rgb(240,252,254)" stroke="rgb(240,252,254)" stroke-width="1" opacity="1" d="M 75 80 L 77 80.5 L 77 82.5 L 74 89.5 L 72 107.5 L 74 111.5 L 73 111.5 L 70 105.5 L 71 103.5 L 69 100.5 Q 72.2 97.7 71.5 91 L 73 91.5 L 75 80 Z " /><path fill="rgb(240,252,254)" stroke="rgb(240,252,254)" stroke-width="1" opacity="1" d="M 106.5 83 L 107 85.5 L 106 85.5 L 106.5 83 Z " /><path fill="rgb(240,252,254)" stroke="rgb(240,252,254)" stroke-width="1" opacity="1" d="M 152.5 83 L 153.5 85 L 152.5 83 Z " /><path fill="rgb(240,252,254)" stroke="rgb(240,252,254)" stroke-width="1" opacity="1" d="M 106.5 87 L 108 93.5 L 106.5 97 L 104 88.5 L 105 88.5 L 105.5 90 L 106.5 87 Z " /><path fill="rgb(240,252,254)" stroke="rgb(240,252,254)" stroke-width="1" opacity="1" d="M 127.5 87 L 130 87.5 L 131 90.5 L 129.5 91 L 125.5 90 L 124 90.5 Q 122.9 87.2 125.5 88 L 127 88.5 L 127.5 87 Z " /><path fill="rgb(240,252,254)" stroke="rgb(240,252,254)" stroke-width="1" opacity="1" d="M 119.5 93 L 117.5 96 L 119.5 93 Z " /><path fill="rgb(240,252,254)" stroke="rgb(240,252,254)" stroke-width="1" opacity="1" d="M 53.5 94 L 55 96.5 L 54 96.5 L 53.5 94 Z " /><path fill="rgb(240,252,254)" stroke="rgb(240,252,254)" stroke-width="1" opacity="1" d="M 108.5 95 L 112 105.5 L 111 105.5 L 108.5 95 Z " /><path fill="rgb(240,252,254)" stroke="rgb(240,252,254)" stroke-width="1" opacity="1" d="M 157.5 98 L 158 101.5 L 157 101.5 L 157.5 98 Z " /><path fill="rgb(240,252,254)" stroke="rgb(240,252,254)" stroke-width="1" opacity="1" d="M 108.5 101 L 109 103.5 L 108 103.5 L 108.5 101 Z " /><path fill="rgb(240,252,254)" stroke="rgb(240,252,254)" stroke-width="1" opacity="1" d="M 57.5 102 L 59 104.5 L 57 103.5 L 57.5 102 Z " /><path fill="rgb(240,252,254)" stroke="rgb(240,252,254)" stroke-width="1" opacity="1" d="M 109.5 105 L 110 108.5 L 109 108.5 L 109.5 105 Z " /><path fill="rgb(240,252,254)" stroke="rgb(240,252,254)" stroke-width="1" opacity="1" d="M 59.5 106 L 60.5 108 L 59.5 106 Z " /><path fill="rgb(240,252,254)" stroke="rgb(240,252,254)" stroke-width="1" opacity="1" d="M 112.5 107 Q 114.7 116.3 120 122.5 L 119.5 124 L 121.5 123 L 122 124.5 L 121 127.5 Q 119.8 134.8 124.5 136 L 126 135.5 L 125.5 134 L 127 134.5 L 128.5 132 L 131 131.5 L 130.5 130 L 131.5 131 L 136 128.5 L 138.5 125 L 139 126.5 L 138 129 Q 135.3 127.9 136 130.5 L 129.5 135 L 128 134.5 L 125.5 138 L 120 134.5 L 118 123.5 L 114 115.5 L 112.5 107 Z " /><path fill="rgb(240,252,254)" stroke="rgb(240,252,254)" stroke-width="1" opacity="1" d="M 69.5 108 L 71 110.5 L 70 110.5 L 69.5 108 Z " /><path fill="rgb(240,252,254)" stroke="rgb(240,252,254)" stroke-width="1" opacity="1" d="M 49.5 111 L 50.5 113 L 49.5 111 Z " /><path fill="rgb(240,252,254)" stroke="rgb(240,252,254)" stroke-width="1" opacity="1" d="M 58.5 111 L 61 112.5 L 71 131 L 74.5 133 L 75.5 132 L 79 135.5 Q 76.2 137.3 78 143.5 L 75.5 148 Q 69.8 148.8 69 144.5 L 58 122.5 L 60 123.5 L 69 141.5 L 73.5 147 L 76 145.5 L 77 140.5 L 76 137.5 Q 76.8 135.3 74.5 136 L 70 131.5 L 60 114.5 L 60 112 L 58.5 111 Z " /><path fill="rgb(240,252,254)" stroke="rgb(240,252,254)" stroke-width="1" opacity="1" d="M 53.5 112 L 58 120.5 L 56 119.5 L 53.5 112 Z " /><path fill="rgb(240,252,254)" stroke="rgb(240,252,254)" stroke-width="1" opacity="1" d="M 71.5 112 L 72.5 114 L 71.5 112 Z " /><path fill="rgb(240,252,254)" stroke="rgb(240,252,254)" stroke-width="1" opacity="1" d="M 51.5 115 L 52.5 117 L 51.5 115 Z " /><path fill="rgb(240,252,254)" stroke="rgb(240,252,254)" stroke-width="1" opacity="1" d="M 101.5 116 L 102.5 118 L 101.5 116 Z " /><path fill="rgb(240,252,254)" stroke="rgb(240,252,254)" stroke-width="1" opacity="1" d="M 121.5 118 L 124.5 122 Q 128.9 120.5 128 123.5 L 128.5 125 L 126.5 125 L 123.5 123 L 120 120.5 L 121.5 118 Z " /><path fill="rgb(240,252,254)" stroke="rgb(240,252,254)" stroke-width="1" opacity="1" d="M 133.5 119 L 132 121.5 Q 132.8 123.8 130.5 123 L 131 121.5 Q 130.3 119.3 132.5 120 L 133.5 119 Z " /><path fill="rgb(240,252,254)" stroke="rgb(240,252,254)" stroke-width="1" opacity="1" d="M 137.5 120 L 136.5 122 L 137.5 120 Z " /><path fill="rgb(240,252,254)" stroke="rgb(240,252,254)" stroke-width="1" opacity="1" d="M 141.5 123 L 142 125 L 140 124.5 L 141.5 123 Z " /><path fill="rgb(240,252,254)" stroke="rgb(240,252,254)" stroke-width="1" opacity="1" d="M 70.5 124 L 71.5 126 L 70.5 124 Z " /><path fill="rgb(240,252,254)" stroke="rgb(240,252,254)" stroke-width="1" opacity="1" d="M 57.5 127 L 58.5 129 L 57.5 127 Z " /><path fill="rgb(173,225,234)" stroke="rgb(173,225,234)" stroke-width="1" opacity="1" d="M 52.5 22 L 55 22.5 L 52.5 23 L 52.5 22 Z " /><path fill="rgb(173,225,234)" stroke="rgb(173,225,234)" stroke-width="1" opacity="1" d="M 57.5 23 L 58.5 25 L 57.5 23 Z " /><path fill="rgb(173,225,234)" stroke="rgb(173,225,234)" stroke-width="1" opacity="1" d="M 45.5 26 L 43.5 29 L 45.5 26 Z " /><path fill="rgb(173,225,234)" stroke="rgb(173,225,234)" stroke-width="1" opacity="1" d="M 60.5 26 L 62 29.5 L 61 29.5 L 60.5 26 Z " /><path fill="rgb(173,225,234)" stroke="rgb(173,225,234)" stroke-width="1" opacity="1" d="M 61.5 32 L 62 33.5 L 60 34.5 L 61.5 32 Z " /><path fill="rgb(173,225,234)" stroke="rgb(173,225,234)" stroke-width="1" opacity="1" d="M 41.5 33 L 42 35.5 L 41 35.5 L 41.5 33 Z " /><path fill="rgb(173,225,234)" stroke="rgb(173,225,234)" stroke-width="1" opacity="1" d="M 59.5 36 L 57.5 39 L 59.5 36 Z " /><path fill="rgb(173,225,234)" stroke="rgb(173,225,234)" stroke-width="1" opacity="1" d="M 103.5 37 L 101.5 40 L 103.5 37 Z " /><path fill="rgb(173,225,234)" stroke="rgb(173,225,234)" stroke-width="1" opacity="1" d="M 41.5 38 L 44 41.5 L 41 39.5 L 41.5 38 Z " /><path fill="rgb(173,225,234)" stroke="rgb(173,225,234)" stroke-width="1" opacity="1" d="M 55.5 39 L 54.5 41 L 51.5 42 L 51.5 41 L 55.5 39 Z " /><path fill="rgb(173,225,234)" stroke="rgb(173,225,234)" stroke-width="1" opacity="1" d="M 99.5 40 L 97.5 43 L 99.5 40 Z " /><path fill="rgb(173,225,234)" stroke="rgb(173,225,234)" stroke-width="1" opacity="1" d="M 106.5 40 L 105.5 42 L 106.5 40 Z " /><path fill="rgb(173,225,234)" stroke="rgb(173,225,234)" stroke-width="1" opacity="1" d="M 45.5 42 L 49 42.5 L 45.5 43 L 45.5 42 Z " /><path fill="rgb(173,225,234)" stroke="rgb(173,225,234)" stroke-width="1" opacity="1" d="M 29.5 43 Q 36 42 38 45.5 L 37.5 47 L 37 45 Q 34.9 43.4 29.5 44 L 29.5 43 Z " /><path fill="rgb(173,225,234)" stroke="rgb(173,225,234)" stroke-width="1" opacity="1" d="M 95.5 43 L 94.5 45 L 95.5 43 Z " /><path fill="rgb(173,225,234)" stroke="rgb(173,225,234)" stroke-width="1" opacity="1" d="M 104.5 43 L 103 45.5 L 102.5 48 L 102 45.5 L 104.5 43 Z " /><path fill="rgb(173,225,234)" stroke="rgb(173,225,234)" stroke-width="1" opacity="1" d="M 118.5 43 L 123 43.5 L 118.5 44 L 118.5 43 Z " /><path fill="rgb(173,225,234)" stroke="rgb(173,225,234)" stroke-width="1" opacity="1" d="M 27.5 44 L 25.5 47 L 27.5 44 Z " /><path fill="rgb(173,225,234)" stroke="rgb(173,225,234)" stroke-width="1" opacity="1" d="M 111.5 44 L 114 44.5 L 111.5 45 L 111.5 44 Z " /><path fill="rgb(173,225,234)" stroke="rgb(173,225,234)" stroke-width="1" opacity="1" d="M 126.5 44 L 129 44.5 L 126.5 45 L 126.5 44 Z " /><path fill="rgb(173,225,234)" stroke="rgb(173,225,234)" stroke-width="1" opacity="1" d="M 92.5 45 L 91.5 47 L 92.5 45 Z " /><path fill="rgb(173,225,234)" stroke="rgb(173,225,234)" stroke-width="1" opacity="1" d="M 89.5 47 L 88.5 49 L 89.5 47 Z " /><path fill="rgb(173,225,234)" stroke="rgb(173,225,234)" stroke-width="1" opacity="1" d="M 135.5 48 L 136.5 50 L 135.5 48 Z " /><path fill="rgb(173,225,234)" stroke="rgb(173,225,234)" stroke-width="1" opacity="1" d="M 84.5 50 L 83.5 52 L 80 54.5 L 79.5 56 L 79 54.5 L 84.5 50 Z " /><path fill="rgb(173,225,234)" stroke="rgb(173,225,234)" stroke-width="1" opacity="1" d="M 138.5 51 L 140.5 54 L 138.5 51 Z " /><path fill="rgb(173,225,234)" stroke="rgb(173,225,234)" stroke-width="1" opacity="1" d="M 141.5 55 L 143 57.5 L 142 57.5 L 141.5 55 Z " /><path fill="rgb(173,225,234)" stroke="rgb(173,225,234)" stroke-width="1" opacity="1" d="M 34.5 56 L 31.5 60 L 34.5 56 Z " /><path fill="rgb(173,225,234)" stroke="rgb(173,225,234)" stroke-width="1" opacity="1" d="M 115.5 57 L 118 57.5 L 115.5 58 L 115.5 57 Z " /><path fill="rgb(173,225,234)" stroke="rgb(173,225,234)" stroke-width="1" opacity="1" d="M 121.5 57 L 125 59.5 L 122.5 58 L 121.5 57 Z " /><path fill="rgb(173,225,234)" stroke="rgb(173,225,234)" stroke-width="1" opacity="1" d="M 109.5 59 L 111 59.5 L 108.5 61 L 109.5 59 Z " /><path fill="rgb(173,225,234)" stroke="rgb(173,225,234)" stroke-width="1" opacity="1" d="M 29.5 62 L 27 65.5 L 25.5 68 L 26 66.5 L 29.5 62 Z " /><path fill="rgb(173,225,234)" stroke="rgb(173,225,234)" stroke-width="1" opacity="1" d="M 33.5 62 L 28.5 68 L 33.5 62 Z " /><path fill="rgb(173,225,234)" stroke="rgb(173,225,234)" stroke-width="1" opacity="1" d="M 37.5 62 L 38.5 64 L 37.5 62 Z " /><path fill="rgb(173,225,234)" stroke="rgb(173,225,234)" stroke-width="1" opacity="1" d="M 94.5 63 L 95 68.5 L 94 68.5 L 94.5 63 Z " /><path fill="rgb(173,225,234)" stroke="rgb(173,225,234)" stroke-width="1" opacity="1" d="M 39.5 65 L 40.5 67 L 39.5 65 Z " /><path fill="rgb(173,225,234)" stroke="rgb(173,225,234)" stroke-width="1" opacity="1" d="M 41.5 68 L 44 71.5 L 42 70.5 L 41.5 68 Z " /><path fill="rgb(173,225,234)" stroke="rgb(173,225,234)" stroke-width="1" opacity="1" d="M 24.5 69 L 20.5 74 L 24.5 69 Z " /><path fill="rgb(173,225,234)" stroke="rgb(173,225,234)" stroke-width="1" opacity="1" d="M 123.5 69 L 122.5 71 L 123.5 69 Z " /><path fill="rgb(173,225,234)" stroke="rgb(173,225,234)" stroke-width="1" opacity="1" d="M 111.5 72 L 112 74.5 L 111 74.5 L 111.5 72 Z " /><path fill="rgb(173,225,234)" stroke="rgb(173,225,234)" stroke-width="1" opacity="1" d="M 118.5 73 L 116.5 76 L 114.5 77 L 115.5 75 L 118.5 73 Z " /><path fill="rgb(173,225,234)" stroke="rgb(173,225,234)" stroke-width="1" opacity="1" d="M 74.5 74 L 75 76.5 L 74 76.5 L 74.5 74 Z " /><path fill="rgb(173,225,234)" stroke="rgb(173,225,234)" stroke-width="1" opacity="1" d="M 19.5 75 L 18 77.5 L 16.5 80 L 17 78.5 L 19.5 75 Z " /><path fill="rgb(173,225,234)" stroke="rgb(173,225,234)" stroke-width="1" opacity="1" d="M 93.5 75 L 94 79.5 L 93 79.5 L 93.5 75 Z " /><path fill="rgb(173,225,234)" stroke="rgb(173,225,234)" stroke-width="1" opacity="1" d="M 92.5 81 L 93 85.5 L 92 85.5 L 92.5 81 Z " /><path fill="rgb(173,225,234)" stroke="rgb(173,225,234)" stroke-width="1" opacity="1" d="M 151.5 81 L 152.5 83 L 151.5 81 Z " /><path fill="rgb(173,225,234)" stroke="rgb(173,225,234)" stroke-width="1" opacity="1" d="M 10.5 84 L 11 86.5 L 10 86.5 L 10.5 84 Z " /><path fill="rgb(173,225,234)" stroke="rgb(173,225,234)" stroke-width="1" opacity="1" d="M 91.5 89 L 92 93.5 L 91 93.5 L 91.5 89 Z " /><path fill="rgb(173,225,234)" stroke="rgb(173,225,234)" stroke-width="1" opacity="1" d="M 54.5 93 L 61 104.5 L 59 103.5 L 54.5 93 Z " /><path fill="rgb(173,225,234)" stroke="rgb(173,225,234)" stroke-width="1" opacity="1" d="M 140.5 93 L 143.5 97 L 140.5 93 Z " /><path fill="rgb(173,225,234)" stroke="rgb(173,225,234)" stroke-width="1" opacity="1" d="M 10.5 94 L 11 96.5 L 10 96.5 L 10.5 94 Z " /><path fill="rgb(173,225,234)" stroke="rgb(173,225,234)" stroke-width="1" opacity="1" d="M 158.5 94 L 159 101.5 L 158 101.5 L 158.5 94 Z " /><path fill="rgb(173,225,234)" stroke="rgb(173,225,234)" stroke-width="1" opacity="1" d="M 90.5 95 L 91 99.5 L 90 99.5 L 90.5 95 Z " /><path fill="rgb(173,225,234)" stroke="rgb(173,225,234)" stroke-width="1" opacity="1" d="M 89.5 103 L 90 105.5 L 89 105.5 L 89.5 103 Z " /><path fill="rgb(173,225,234)" stroke="rgb(173,225,234)" stroke-width="1" opacity="1" d="M 67.5 104 L 68 107.5 L 67 107.5 L 67.5 104 Z " /><path fill="rgb(173,225,234)" stroke="rgb(173,225,234)" stroke-width="1" opacity="1" d="M 61.5 106 L 62.5 108 L 61.5 106 Z " /><path fill="rgb(173,225,234)" stroke="rgb(173,225,234)" stroke-width="1" opacity="1" d="M 88.5 109 L 89 112.5 L 88 112.5 L 88.5 109 Z " /><path fill="rgb(173,225,234)" stroke="rgb(173,225,234)" stroke-width="1" opacity="1" d="M 140.5 111 L 136.5 116 L 140.5 111 Z " /><path fill="rgb(173,225,234)" stroke="rgb(173,225,234)" stroke-width="1" opacity="1" d="M 154.5 114 L 153.5 116 L 154.5 114 Z " /><path fill="rgb(173,225,234)" stroke="rgb(173,225,234)" stroke-width="1" opacity="1" d="M 93.5 115 L 91.5 118 L 93.5 115 Z " /><path fill="rgb(173,225,234)" stroke="rgb(173,225,234)" stroke-width="1" opacity="1" d="M 102.5 115 L 105 118.5 L 104 118.5 L 102.5 115 Z " /><path fill="rgb(173,225,234)" stroke="rgb(173,225,234)" stroke-width="1" opacity="1" d="M 87.5 116 L 88 120.5 L 87 120.5 L 87.5 116 Z " /><path fill="rgb(173,225,234)" stroke="rgb(173,225,234)" stroke-width="1" opacity="1" d="M 133.5 117 L 132.5 119 L 133.5 117 Z " /><path fill="rgb(173,225,234)" stroke="rgb(173,225,234)" stroke-width="1" opacity="1" d="M 127.5 118 L 128 120 L 130 120.5 L 128.5 121 L 127.5 118 Z " /><path fill="rgb(173,225,234)" stroke="rgb(173,225,234)" stroke-width="1" opacity="1" d="M 96.5 120 L 96 121.5 L 95.5 128 L 95 121.5 L 96.5 120 Z " /><path fill="rgb(173,225,234)" stroke="rgb(173,225,234)" stroke-width="1" opacity="1" d="M 98.5 120 Q 101.3 121.3 100 126.5 L 99 126.5 L 98.5 120 Z " /><path fill="rgb(173,225,234)" stroke="rgb(173,225,234)" stroke-width="1" opacity="1" d="M 105.5 120 L 106 126.5 L 105 126.5 L 105.5 120 Z " /><path fill="rgb(173,225,234)" stroke="rgb(173,225,234)" stroke-width="1" opacity="1" d="M 71.5 123 L 72.5 125 L 71.5 123 Z " /><path fill="rgb(173,225,234)" stroke="rgb(173,225,234)" stroke-width="1" opacity="1" d="M 142.5 128 L 141.5 130 L 142.5 128 Z " /><path fill="rgb(173,225,234)" stroke="rgb(173,225,234)" stroke-width="1" opacity="1" d="M 76.5 131 L 79 132.5 L 77.5 133 L 76.5 131 Z " /><path fill="rgb(173,225,234)" stroke="rgb(173,225,234)" stroke-width="1" opacity="1" d="M 103.5 134 L 107 135.5 L 103 136 L 103.5 134 Z " /><path fill="rgb(173,225,234)" stroke="rgb(173,225,234)" stroke-width="1" opacity="1" d="M 109.5 135 L 110.5 137 L 109.5 135 Z " /><path fill="rgb(173,225,234)" stroke="rgb(173,225,234)" stroke-width="1" opacity="1" d="M 130.5 135 L 129.5 137 L 130.5 135 Z " /><path fill="rgb(173,225,234)" stroke="rgb(173,225,234)" stroke-width="1" opacity="1" d="M 84.5 136 L 85 138.5 L 84 138.5 L 84.5 136 Z " /><path fill="rgb(173,225,234)" stroke="rgb(173,225,234)" stroke-width="1" opacity="1" d="M 94.5 139 L 93.5 141 L 94.5 139 Z " /><path fill="rgb(173,225,234)" stroke="rgb(173,225,234)" stroke-width="1" opacity="1" d="M 110.5 139 L 109.5 141 L 110.5 139 Z " /><path fill="rgb(173,225,234)" stroke="rgb(173,225,234)" stroke-width="1" opacity="1" d="M 81.5 148 L 78.5 152 L 81.5 148 Z " /><path fill="rgb(173,225,234)" stroke="rgb(173,225,234)" stroke-width="1" opacity="1" d="M 67.5 149 L 69.5 152 L 67.5 149 Z " /><path fill="rgb(125,164,241)" stroke="rgb(125,164,241)" stroke-width="1" opacity="1" d="M 118.5 57 L 121 57.5 L 118.5 58 L 118.5 57 Z " /><path fill="rgb(125,164,241)" stroke="rgb(125,164,241)" stroke-width="1" opacity="1" d="M 124.5 67 L 123.5 69 L 124.5 67 Z " /><path fill="rgb(125,164,241)" stroke="rgb(125,164,241)" stroke-width="1" opacity="1" d="M 94.5 69 L 95 72.5 L 94 72.5 L 94.5 69 Z " /><path fill="rgb(125,164,241)" stroke="rgb(125,164,241)" stroke-width="1" opacity="1" d="M 153.5 82 L 154.5 84 L 153.5 82 Z " /><path fill="rgb(125,164,241)" stroke="rgb(125,164,241)" stroke-width="1" opacity="1" d="M 180.5 84 L 182 85.5 L 182 103.5 L 179 119.5 L 171 138.5 Q 163.5 151.5 152.5 161 L 136.5 172 L 124.5 176 L 118 171.5 L 117 168.5 Q 121.6 157.1 131.5 151 Q 150 138 165 121.5 Q 172 114.5 176 104.5 L 180.5 84 Z " /><path fill="rgb(125,164,241)" stroke="rgb(125,164,241)" stroke-width="1" opacity="1" d="M 9.5 89 L 10 98.5 L 9 98.5 L 9.5 89 Z " /><path fill="rgb(125,164,241)" stroke="rgb(125,164,241)" stroke-width="1" opacity="1" d="M 127.5 92 L 131 92.5 L 127.5 93 L 127.5 92 Z " /><path fill="rgb(125,164,241)" stroke="rgb(125,164,241)" stroke-width="1" opacity="1" d="M 141.5 109 L 140.5 111 L 141.5 109 Z " /><path fill="rgb(125,164,241)" stroke="rgb(125,164,241)" stroke-width="1" opacity="1" d="M 96.5 113 L 100 113.5 L 96.5 114 L 96.5 113 Z " /><path fill="rgb(125,164,241)" stroke="rgb(125,164,241)" stroke-width="1" opacity="1" d="M 66.5 114 L 67.5 116 L 66.5 114 Z " /><path fill="rgb(125,164,241)" stroke="rgb(125,164,241)" stroke-width="1" opacity="1" d="M 135.5 115 L 134.5 117 L 135.5 115 Z " /><path fill="rgb(125,164,241)" stroke="rgb(125,164,241)" stroke-width="1" opacity="1" d="M 152.5 118 L 151.5 120 L 152.5 118 Z " /><path fill="rgb(125,164,241)" stroke="rgb(125,164,241)" stroke-width="1" opacity="1" d="M 89.5 120 L 90 126.5 L 89 126.5 L 89.5 120 Z " /><path fill="rgb(125,164,241)" stroke="rgb(125,164,241)" stroke-width="1" opacity="1" d="M 150.5 121 L 148.5 124 L 150.5 121 Z " /><path fill="rgb(125,164,241)" stroke="rgb(125,164,241)" stroke-width="1" opacity="1" d="M 86.5 125 L 87 127.5 L 86 127.5 L 86.5 125 Z " /><path fill="rgb(125,164,241)" stroke="rgb(125,164,241)" stroke-width="1" opacity="1" d="M 146.5 125 L 143.5 129 L 146.5 125 Z " /><path fill="rgb(125,164,241)" stroke="rgb(125,164,241)" stroke-width="1" opacity="1" d="M 92.5 145 L 93.5 147 L 92.5 145 Z " /><path fill="rgb(125,164,241)" stroke="rgb(125,164,241)" stroke-width="1" opacity="1" d="M 72.5 153 L 75 153.5 L 72.5 154 L 72.5 153 Z " /><path fill="rgb(125,164,241)" stroke="rgb(125,164,241)" stroke-width="1" opacity="1" d="M 95.5 170 Q 104.5 168.5 107 173.5 L 108 178.5 L 107 181 L 91.5 182 L 89 181 Q 89 174.3 93.5 171 L 95.5 170 Z " /><path fill="rgb(7,193,227)" stroke="rgb(7,193,227)" stroke-width="1" opacity="1" d="M 153.5 32 L 154.5 34 L 153.5 32 Z " /><path fill="rgb(7,193,227)" stroke="rgb(7,193,227)" stroke-width="1" opacity="1" d="M 158.5 37 L 159.5 39 L 158.5 37 Z " /><path fill="rgb(7,193,227)" stroke="rgb(7,193,227)" stroke-width="1" opacity="1" d="M 163.5 43 L 164.5 45 L 163.5 43 Z " /><path fill="rgb(7,193,227)" stroke="rgb(7,193,227)" stroke-width="1" opacity="1" d="M 137.5 49 Q 145.4 53.1 146.5 64 L 149 60.5 Q 145.5 59 148 57.5 L 148 56 Q 151.8 57.5 151 54.5 L 152 54.5 L 152.5 56 L 154 55.5 Q 153.3 57.8 155.5 57 L 155.5 55 L 157.5 58 L 158 56 L 161.5 55 Q 162.3 57.8 166.5 57 L 168.5 56 L 169.5 57 L 172 55.5 L 171 57.5 L 173 57.5 L 172 59.5 L 174 59.5 L 173 61.5 L 175 62 L 176 64.5 Q 173.5 66 177 67.5 L 181 83.5 L 178 97.5 L 176.5 99 Q 175 95.5 173.5 98 L 169 100 Q 170 103 167 102 L 167 104.5 L 162 102.5 Q 162.7 99.9 160 101 L 159.5 103 L 158 88.5 L 153.5 82 L 141 75.5 Q 145.8 70.3 144 58.5 L 137.5 49 Z " /><path fill="rgb(7,193,227)" stroke="rgb(7,193,227)" stroke-width="1" opacity="1" d="M 169.5 52 L 170 54.5 L 168 53.5 L 169.5 52 Z " /><path fill="rgb(7,193,227)" stroke="rgb(7,193,227)" stroke-width="1" opacity="1" d="M 110.5 66 L 112 69.5 L 110 68.5 L 110.5 66 Z " /><path fill="rgb(7,193,227)" stroke="rgb(7,193,227)" stroke-width="1" opacity="1" d="M 121.5 67 L 122 68.5 L 120.5 72 L 120 68.5 L 121.5 67 Z " /><path fill="rgb(7,193,227)" stroke="rgb(7,193,227)" stroke-width="1" opacity="1" d="M 117.5 71 Q 121 73 116.5 75 L 116.5 73 L 115 72.5 L 117.5 71 Z " /><path fill="rgb(7,193,227)" stroke="rgb(7,193,227)" stroke-width="1" opacity="1" d="M 97.5 89 L 105 115.5 L 103.5 115 L 96.5 113 L 90 118.5 Q 90.8 120.8 88.5 120 L 90 117.5 L 89 108.5 L 91 101.5 L 91 95.5 L 92.5 94 L 95.5 98 L 97 96.5 L 97.5 89 Z " /><path fill="rgb(7,193,227)" stroke="rgb(7,193,227)" stroke-width="1" opacity="1" d="M 54.5 91 L 56 93.5 L 55 93.5 L 54.5 91 Z " /><path fill="rgb(7,193,227)" stroke="rgb(7,193,227)" stroke-width="1" opacity="1" d="M 56.5 95 L 57.5 97 L 56.5 95 Z " /><path fill="rgb(7,193,227)" stroke="rgb(7,193,227)" stroke-width="1" opacity="1" d="M 122.5 97 Q 134.6 94.9 139 100.5 L 140 108.5 L 138 111.5 Q 140.8 113.2 136.5 115 L 128 120 L 121 98.5 L 122.5 97 Z " /><path fill="rgb(7,193,227)" stroke="rgb(7,193,227)" stroke-width="1" opacity="1" d="M 58.5 98 L 61.5 102 L 65 101 L 64 107 Q 61.3 108.1 62 105.5 L 58 99.5 L 58.5 98 Z " /><path fill="rgb(7,193,227)" stroke="rgb(7,193,227)" stroke-width="1" opacity="1" d="M 43 117 Q 45.7 115.9 45 118.5 L 45.5 120 L 43 118.5 L 43 117 Z " /><path fill="rgb(7,193,227)" stroke="rgb(7,193,227)" stroke-width="1" opacity="1" d="M 24.5 121 L 30 123.5 L 30.5 125 L 31.5 123 L 37.5 125 Q 39.2 127.8 44.5 127 L 46 124.5 L 45 121 Q 47.7 119.9 47 122.5 L 66 159 Q 58.3 157.5 56.5 163 L 55 162.5 L 54 168 L 48.5 167 L 32 153.5 L 28 148.5 L 34 152.5 L 22 135.5 L 25 135 L 26 132.5 L 24 129.5 L 26 128.5 L 24 123.5 L 24.5 121 Z " /><path fill="rgb(7,193,227)" stroke="rgb(7,193,227)" stroke-width="1" opacity="1" d="M 106.5 121 L 110 135 L 104.5 135 L 104 133.5 Q 106.9 128.9 106.5 121 Z " /><path fill="rgb(7,193,227)" stroke="rgb(7,193,227)" stroke-width="1" opacity="1" d="M 93 131 Q 95.7 129.9 95 132.5 L 88 147.5 L 85.5 150 L 82.5 149 L 81 149.5 Q 85.4 143.7 85 134 L 91.5 135 L 93 131 Z " /><path fill="rgb(7,193,227)" stroke="rgb(7,193,227)" stroke-width="1" opacity="1" d="M 18.5 132 L 20 134.5 L 19 134.5 L 18.5 132 Z " /><path fill="rgb(7,193,227)" stroke="rgb(7,193,227)" stroke-width="1" opacity="1" d="M 20.5 136 L 21.5 138 L 20.5 136 Z " /><path fill="rgb(7,193,227)" stroke="rgb(7,193,227)" stroke-width="1" opacity="1" d="M 22.5 139 L 25 142.5 L 23 141.5 L 22.5 139 Z " /><path fill="rgb(7,193,227)" stroke="rgb(7,193,227)" stroke-width="1" opacity="1" d="M 111.5 139 L 112 140.5 L 110 141.5 L 111.5 139 Z " /><path fill="rgb(7,193,227)" stroke="rgb(7,193,227)" stroke-width="1" opacity="1" d="M 25.5 144 L 26.5 146 L 25.5 144 Z " /><path fill="rgb(4,40,76)" stroke="rgb(4,40,76)" stroke-width="1" opacity="0.9647058823529412" d="M 87.5 3 L 112.5 4 L 132.5 10 Q 153.5 19 167 35.5 Q 178.7 48.8 185 67.5 L 189 88.5 L 189 102.5 L 188 103.5 L 188 111.5 L 182 131.5 Q 174 150 160.5 163 Q 145.3 177.8 122.5 185 L 107.5 188 L 83.5 188 Q 46.1 181.4 26 157.5 Q 11.5 141.5 5 117.5 L 3 106.5 L 3 85.5 Q 9.9 43.9 37.5 23 Q 48 14.5 61.5 9 L 74.5 5 L 86.5 4 L 87.5 3 Z M 83 10 Q 57 15 41 29 Q 27 40 19 56 L 13 70 L 9 90 L 10 109 L 14 125 Q 20 142 32 155 Q 43 166 59 174 L 73 179 L 90 182 L 105 182 L 120 179 Q 137 174 150 164 Q 175 145 182 108 L 182 85 L 180 75 Q 174 52 160 38 Q 147 23 128 15 L 110 10 L 83 10 Z " /><path fill="rgb(4,40,76)" stroke="rgb(4,40,76)" stroke-width="1" opacity="0.9647058823529412" d="M 77.5 57 L 78 60.5 L 76 64.5 L 74 77.5 L 67 102.5 L 67 108.5 L 78 131.5 L 76 130.5 L 66 113.5 L 64 107.5 Q 70.8 88.3 74 65.5 L 77.5 57 Z " /><path fill="rgb(4,40,76)" stroke="rgb(4,40,76)" stroke-width="1" opacity="0.9647058823529412" d="M 115.5 58 Q 122.2 56.2 124 59.5 L 125 66.5 L 123 67.5 L 119.5 62 L 113.5 61 L 108.5 63 L 108 61 L 115.5 58 Z " /><path fill="rgb(4,40,76)" stroke="rgb(4,40,76)" stroke-width="1" opacity="0.9647058823529412" d="M 95.5 65 L 107 107.5 L 115 130.5 L 117 142 L 120.5 142 L 141.5 130 L 140.5 132 L 124.5 142 L 114 146 L 110 127.5 L 106 117.5 L 95 77.5 L 95.5 65 Z " /><path fill="rgb(4,40,76)" stroke="rgb(4,40,76)" stroke-width="1" opacity="0.9647058823529412" d="M 26.5 70 L 65 147.5 L 68.5 152 Q 70.2 154.8 75.5 154 L 77 153.5 Q 75.1 158.1 67.5 157 L 63 152.5 L 42 109.5 L 25 78.5 L 24 73.5 L 26.5 70 Z " /><path fill="rgb(4,40,76)" stroke="rgb(4,40,76)" stroke-width="1" opacity="0.9647058823529412" d="M 125.5 93 L 138.5 93 L 142 95.5 L 144 104.5 L 141.5 109 Q 141.8 100.2 136.5 97 Q 131.8 94.7 123.5 96 L 120.5 97 L 121.5 95 L 125.5 93 Z " /><path fill="rgb(4,40,76)" stroke="rgb(4,40,76)" stroke-width="1" opacity="0.9647058823529412" d="M 96 121 L 99 122.5 L 98 131.5 L 95.5 136 L 95 134.5 L 96 133.5 L 96 121 Z " /><path fill="rgb(4,40,76)" stroke="rgb(4,40,76)" stroke-width="1" opacity="0.9647058823529412" d="M 88.5 122 L 92 134 L 89.5 135 L 87 134 L 87 124.5 L 88.5 122 Z " /><path fill="rgb(4,40,76)" stroke="rgb(4,40,76)" stroke-width="1" opacity="0.9647058823529412" d="M 105.5 142 L 108 142.5 L 105.5 145 Q 97.6 145.6 93.5 150 L 90.5 150 Q 88.3 149.3 89 145.5 L 92 143.5 L 93.5 147 L 96.5 147 L 105.5 142 Z " /></svg>